  0
SECTION
  2
HEADER
  9
$ACADVER
  1
AC1027
  9
$ACADMAINTVER
 70
   125
  9
$DWGCODEPAGE
  3
ANSI_1252
  9
$REQUIREDVERSIONS
160
                 0
  9
$INSBASE
 10
0.0
 20
0.0
 30
0.0
  9
$EXTMIN
 10
1.000000000000000E+20
 20
1.000000000000000E+20
 30
1.000000000000000E+20
  9
$EXTMAX
 10
-1.000000000000000E+20
 20
-1.000000000000000E+20
 30
-1.000000000000000E+20
  9
$LIMMIN
 10
0.0
 20
0.0
  9
$LIMMAX
 10
12.0
 20
9.0
  9
$ORTHOMODE
 70
     0
  9
$REGENMODE
 70
     1
  9
$FILLMODE
 70
     1
  9
$QTEXTMODE
 70
     0
  9
$MIRRTEXT
 70
     0
  9
$LTSCALE
 40
1.0
  9
$ATTMODE
 70
     1
  9
$TEXTSIZE
 40
0.2
  9
$TRACEWID
 40
0.05
  9
$TEXTSTYLE
  7
Standard
  9
$CLAYER
  8
0
  9
$CELTYPE
  6
ByLayer
  9
$CECOLOR
 62
   256
  9
$CELTSCALE
 40
1.0
  9
$DISPSILH
 70
     0
  9
$DIMSCALE
 40
1.0
  9
$DIMASZ
 40
0.18
  9
$DIMEXO
 40
0.0625
  9
$DIMDLI
 40
0.38
  9
$DIMRND
 40
0.0
  9
$DIMDLE
 40
0.0
  9
$DIMEXE
 40
0.18
  9
$DIMTP
 40
0.0
  9
$DIMTM
 40
0.0
  9
$DIMTXT
 40
0.18
  9
$DIMCEN
 40
0.09
  9
$DIMTSZ
 40
0.0
  9
$DIMTOL
 70
     0
  9
$DIMLIM
 70
     0
  9
$DIMTIH
 70
     1
  9
$DIMTOH
 70
     1
  9
$DIMSE1
 70
     0
  9
$DIMSE2
 70
     0
  9
$DIMTAD
 70
     0
  9
$DIMZIN
 70
     0
  9
$DIMBLK
  1

  9
$DIMASO
 70
     1
  9
$DIMSHO
 70
     1
  9
$DIMPOST
  1

  9
$DIMAPOST
  1

  9
$DIMALT
 70
     0
  9
$DIMALTD
 70
     2
  9
$DIMALTF
 40
25.4
  9
$DIMLFAC
 40
1.0
  9
$DIMTOFL
 70
     0
  9
$DIMTVP
 40
0.0
  9
$DIMTIX
 70
     0
  9
$DIMSOXD
 70
     0
  9
$DIMSAH
 70
     0
  9
$DIMBLK1
  1

  9
$DIMBLK2
  1

  9
$DIMSTYLE
  2
Standard
  9
$DIMCLRD
 70
     0
  9
$DIMCLRE
 70
     0
  9
$DIMCLRT
 70
     0
  9
$DIMTFAC
 40
1.0
  9
$DIMGAP
 40
0.09
  9
$DIMJUST
 70
     0
  9
$DIMSD1
 70
     0
  9
$DIMSD2
 70
     0
  9
$DIMTOLJ
 70
     1
  9
$DIMTZIN
 70
     0
  9
$DIMALTZ
 70
     0
  9
$DIMALTTZ
 70
     0
  9
$DIMUPT
 70
     0
  9
$DIMDEC
 70
     4
  9
$DIMTDEC
 70
     4
  9
$DIMALTU
 70
     2
  9
$DIMALTTD
 70
     2
  9
$DIMTXSTY
  7
Standard
  9
$DIMAUNIT
 70
     0
  9
$DIMADEC
 70
     0
  9
$DIMALTRND
 40
0.0
  9
$DIMAZIN
 70
     0
  9
$DIMDSEP
 70
    46
  9
$DIMATFIT
 70
     3
  9
$DIMFRAC
 70
     0
  9
$DIMLDRBLK
  1

  9
$DIMLUNIT
 70
     2
  9
$DIMLWD
 70
    -2
  9
$DIMLWE
 70
    -2
  9
$DIMTMOVE
 70
     0
  9
$DIMFXL
 40
1.0
  9
$DIMFXLON
 70
     0
  9
$DIMJOGANG
 40
0.7853981633974483
  9
$DIMTFILL
 70
     0
  9
$DIMTFILLCLR
 70
     0
  9
$DIMARCSYM
 70
     0
  9
$DIMLTYPE
  6

  9
$DIMLTEX1
  6

  9
$DIMLTEX2
  6

  9
$DIMTXTDIRECTION
 70
     0
  9
$LUNITS
 70
     2
  9
$LUPREC
 70
     4
  9
$SKETCHINC
 40
0.1
  9
$FILLETRAD
 40
0.0
  9
$AUNITS
 70
     0
  9
$AUPREC
 70
     0
  9
$MENU
  1
.
  9
$ELEVATION
 40
0.0
  9
$PELEVATION
 40
0.0
  9
$THICKNESS
 40
0.0
  9
$LIMCHECK
 70
     0
  9
$CHAMFERA
 40
0.0
  9
$CHAMFERB
 40
0.0
  9
$CHAMFERC
 40
0.0
  9
$CHAMFERD
 40
0.0
  9
$SKPOLY
 70
     0
  9
$TDCREATE
 40
2460001.012210648
  9
$TDUCREATE
 40
2460001.012210648
  9
$TDUPDATE
 40
2460001.012210648
  9
$TDUUPDATE
 40
2460001.012210648
  9
$TDINDWG
 40
0.0000000000
  9
$TDUSRTIMER
 40
0.0000000000
  9
$USRTIMER
 70
     1
  9
$ANGBASE
 50
0.0
  9
$ANGDIR
 70
     0
  9
$PDMODE
 70
     0
  9
$PDSIZE
 40
0.0
  9
$PLINEWID
 40
0.0
  9
$SPLFRAME
 70
     0
  9
$SPLINETYPE
 70
     6
  9
$SPLINESEGS
 70
     8
  9
$HANDSEED
  5
18D
  9
$SURFTAB1
 70
     6
  9
$SURFTAB2
 70
     6
  9
$SURFTYPE
 70
     6
  9
$SURFU
 70
     6
  9
$SURFV
 70
     6
  9
$UCSBASE
  2

  9
$UCSNAME
  2

  9
$UCSORG
 10
0.0
 20
0.0
 30
0.0
  9
$UCSXDIR
 10
1.0
 20
0.0
 30
0.0
  9
$UCSYDIR
 10
0.0
 20
1.0
 30
0.0
  9
$UCSORTHOREF
  2

  9
$UCSORTHOVIEW
 70
     0
  9
$UCSORGTOP
 10
0.0
 20
0.0
 30
0.0
  9
$UCSORGBOTTOM
 10
0.0
 20
0.0
 30
0.0
  9
$UCSORGLEFT
 10
0.0
 20
0.0
 30
0.0
  9
$UCSORGRIGHT
 10
0.0
 20
0.0
 30
0.0
  9
$UCSORGFRONT
 10
0.0
 20
0.0
 30
0.0
  9
$UCSORGBACK
 10
0.0
 20
0.0
 30
0.0
  9
$PUCSBASE
  2

  9
$PUCSNAME
  2

  9
$PUCSORG
 10
0.0
 20
0.0
 30
0.0
  9
$PUCSXDIR
 10
1.0
 20
0.0
 30
0.0
  9
$PUCSYDIR
 10
0.0
 20
1.0
 30
0.0
  9
$PUCSORTHOREF
  2

  9
$PUCSORTHOVIEW
 70
     0
  9
$PUCSORGTOP
 10
0.0
 20
0.0
 30
0.0
  9
$PUCSORGBOTTOM
 10
0.0
 20
0.0
 30
0.0
  9
$PUCSORGLEFT
 10
0.0
 20
0.0
 30
0.0
  9
$PUCSORGRIGHT
 10
0.0
 20
0.0
 30
0.0
  9
$PUCSORGFRONT
 10
0.0
 20
0.0
 30
0.0
  9
$PUCSORGBACK
 10
0.0
 20
0.0
 30
0.0
  9
$USERI1
 70
     0
  9
$USERI2
 70
     0
  9
$USERI3
 70
     0
  9
$USERI4
 70
     0
  9
$USERI5
 70
     0
  9
$USERR1
 40
0.0
  9
$USERR2
 40
0.0
  9
$USERR3
 40
0.0
  9
$USERR4
 40
0.0
  9
$USERR5
 40
0.0
  9
$WORLDVIEW
 70
     1
  9
$SHADEDGE
 70
     3
  9
$SHADEDIF
 70
    70
  9
$TILEMODE
 70
     1
  9
$MAXACTVP
 70
    64
  9
$PINSBASE
 10
0.0
 20
0.0
 30
0.0
  9
$PLIMCHECK
 70
     0
  9
$PEXTMIN
 10
1.000000000000000E+20
 20
1.000000000000000E+20
 30
1.000000000000000E+20
  9
$PEXTMAX
 10
-1.000000000000000E+20
 20
-1.000000000000000E+20
 30
-1.000000000000000E+20
  9
$PLIMMIN
 10
0.0
 20
0.0
  9
$PLIMMAX
 10
12.0
 20
9.0
  9
$UNITMODE
 70
     0
  9
$VISRETAIN
 70
     1
  9
$PLINEGEN
 70
     0
  9
$PSLTSCALE
 70
     1
  9
$TREEDEPTH
 70
  3020
  9
$CMLSTYLE
  2
Standard
  9
$CMLJUST
 70
     0
  9
$CMLSCALE
 40
1.0
  9
$PROXYGRAPHICS
 70
     1
  9
$MEASUREMENT
 70
     0
  9
$CELWEIGHT
370
    -1
  9
$ENDCAPS
280
     0
  9
$JOINSTYLE
280
     0
  9
$LWDISPLAY
290
     0
  9
$INSUNITS
 70
     5
  9
$HYPERLINKBASE
  1

  9
$STYLESHEET
  1

  9
$XEDIT
290
     1
  9
$CEPSNTYPE
380
     0
  9
$PSTYLEMODE
290
     1
  9
$FINGERPRINTGUID
  2
{F6EF71C9-71E4-1647-BB44-936435D4ED94}
  9
$VERSIONGUID
  2
{7BF6D773-CD16-134D-BB98-BA3D290328C9}
  9
$EXTNAMES
290
     1
  9
$PSVPSCALE
 40
0.0
  9
$OLESTARTUP
290
     0
  9
$SORTENTS
280
   127
  9
$INDEXCTL
280
     0
  9
$HIDETEXT
280
     1
  9
$XCLIPFRAME
280
     2
  9
$HALOGAP
280
     0
  9
$OBSCOLOR
 70
   257
  9
$OBSLTYPE
280
     0
  9
$INTERSECTIONDISPLAY
280
     0
  9
$INTERSECTIONCOLOR
 70
   257
  9
$DIMASSOC
280
     2
  9
$PROJECTNAME
  1

  9
$CAMERADISPLAY
290
     0
  9
$LENSLENGTH
 40
50.0
  9
$CAMERAHEIGHT
 40
0.0
  9
$STEPSPERSEC
 40
2.0
  9
$STEPSIZE
 40
6.0
  9
$3DDWFPREC
 40
2.0
  9
$PSOLWIDTH
 40
0.25
  9
$PSOLHEIGHT
 40
4.0
  9
$LOFTANG1
 40
1.570796326794896
  9
$LOFTANG2
 40
1.570796326794896
  9
$LOFTMAG1
 40
0.0
  9
$LOFTMAG2
 40
0.0
  9
$LOFTPARAM
 70
     7
  9
$LOFTNORMALS
280
     1
  9
$LATITUDE
 40
37.795
  9
$LONGITUDE
 40
-122.394
  9
$NORTHDIRECTION
 40
0.0
  9
$TIMEZONE
 70
 -8000
  9
$LIGHTGLYPHDISPLAY
280
     1
  9
$TILEMODELIGHTSYNCH
280
     1
  9
$CMATERIAL
347
11
  9
$SOLIDHIST
280
     0
  9
$SHOWHIST
280
     1
  9
$DWFFRAME
280
     2
  9
$DGNFRAME
280
     0
  9
$REALWORLDSCALE
290
     1
  9
$INTERFERECOLOR
 62
     1
  9
$INTERFEREOBJVS
345
33
  9
$INTERFEREVPVS
346
30
  9
$CSHADOW
280
     0
  9
$SHADOWPLANELOCATION
 40
0.0
  0
ENDSEC
  0
SECTION
  2
CLASSES
  0
CLASS
  1
ACDBDICTIONARYWDFLT
  2
AcDbDictionaryWithDefault
  3
ObjectDBX Classes
 90
        0
 91
        1
280
     0
281
     0
  0
CLASS
  1
MATERIAL
  2
AcDbMaterial
  3
ObjectDBX Classes
 90
     1153
 91
        3
280
     0
281
     0
  0
CLASS
  1
VISUALSTYLE
  2
AcDbVisualStyle
  3
ObjectDBX Classes
 90
     4095
 91
       24
280
     0
281
     0
  0
CLASS
  1
SCALE
  2
AcDbScale
  3
ObjectDBX Classes
 90
     1153
 91
       17
280
     0
281
     0
  0
CLASS
  1
TABLESTYLE
  2
AcDbTableStyle
  3
ObjectDBX Classes
 90
     4095
 91
        1
280
     0
281
     0
  0
CLASS
  1
MLEADERSTYLE
  2
AcDbMLeaderStyle
  3
ACDB_MLEADERSTYLE_CLASS
 90
     4095
 91
        1
280
     0
281
     0
  0
CLASS
  1
ACDBSECTIONVIEWSTYLE
  2
AcDbSectionViewStyle
  3
ObjectDBX Classes
 90
     1025
 91
        1
280
     0
281
     0
  0
CLASS
  1
ACDBDETAILVIEWSTYLE
  2
AcDbDetailViewStyle
  3
ObjectDBX Classes
 90
     1025
 91
        1
280
     0
281
     0
  0
CLASS
  1
DICTIONARYVAR
  2
AcDbDictionaryVar
  3
ObjectDBX Classes
 90
        0
 91
        5
280
     0
281
     0
  0
CLASS
  1
CELLSTYLEMAP
  2
AcDbCellStyleMap
  3
ObjectDBX Classes
 90
     1152
 91
        1
280
     0
281
     0
  0
ENDSEC
  0
SECTION
  2
TABLES
  0
TABLE
  2
VPORT
  5
8
330
0
100
AcDbSymbolTable
 70
     1
1001
ACAD
1000
DbSaveVer
1071
      267
  0
VPORT
  5
57
330
8
100
AcDbSymbolTableRecord
100
AcDbViewportTableRecord
  2
*Active
 70
     0
 10
0.0
 20
0.0
 11
1.0
 21
1.0
 12
500.0
 22
500.0
 13
0.0
 23
0.0
 14
1.0
 24
1.0
 15
0.0
 25
0.0
 16
0.0
 26
0.0
 36
1.0
 17
0.0
 27
0.0
 37
0.0
 40
12.0
 41
1.0
 42
50.0
 43
0.0
 44
0.0
 50
0.0
 51
0.0
 71
     0
 72
   100
 73
     1
 74
     1
 75
     0
 76
     0
 77
     0
 78
     0
281
     0
 65
     1
110
0.0
120
0.0
130
0.0
111
1.0
121
0.0
131
0.0
112
0.0
122
1.0
132
0.0
 79
     0
146
0.0
 60
     3
 61
     5
292
     1
282
     1
141
0.0
142
0.0
 63
   250
421
  3355443
  0
ENDTAB
  0
TABLE
  2
LTYPE
  5
5
330
0
100
AcDbSymbolTable
 70
     1
  0
LTYPE
  5
5B
330
5
100
AcDbSymbolTableRecord
100
AcDbLinetypeTableRecord
  2
ByBlock
 70
     0
  3

 72
    65
 73
     0
 40
0.0
  0
LTYPE
  5
5C
330
5
100
AcDbSymbolTableRecord
100
AcDbLinetypeTableRecord
  2
ByLayer
 70
     0
  3

 72
    65
 73
     0
 40
0.0
  0
LTYPE
  5
5D
330
5
100
AcDbSymbolTableRecord
100
AcDbLinetypeTableRecord
  2
Continuous
 70
     0
  3
Solid line
 72
    65
 73
     0
 40
0.0
  0
ENDTAB
  0
TABLE
  2
LAYER
  5
2
330
0
100
AcDbSymbolTable
 70
     2
  0
LAYER
  5
54
330
2
100
AcDbSymbolTableRecord
100
AcDbLayerTableRecord
  2
0
 70
     0
 62
     7
  6
Continuous
370
    -3
390
F
347
21
348
0
  0
LAYER
  5
7A
330
2
100
AcDbSymbolTableRecord
100
AcDbLayerTableRecord
  2
cyl v2_Sketch1
 70
     0
 62
     7
  6
Continuous
370
    -3
390
F
347
21
348
0
1001
NFusion_SketchTransform
1000
1.000000;0.000000;0.000000;0.000000;0.000000;1.000000;0.000000;0.000000;0.000000;0.000000;1.000000;0.000000;0.000000;0.000000;0.000000;1.000000
  0
ENDTAB
  0
TABLE
  2
STYLE
  5
3
330
0
100
AcDbSymbolTable
 70
     2
  0
STYLE
  5
55
330
3
100
AcDbSymbolTableRecord
100
AcDbTextStyleTableRecord
  2
Standard
 70
     0
 40
0.0
 41
1.0
 50
0.0
 71
     0
 42
0.2
  3
txt
  4

  0
STYLE
  5
5A
330
3
100
AcDbSymbolTableRecord
100
AcDbTextStyleTableRecord
  2
Annotative
 70
     0
 40
0.0
 41
1.0
 50
0.0
 71
     0
 42
0.2
  3
txt
  4

1001
AcadAnnotative
1000
AnnotativeData
1002
{
1070
     1
1070
     1
1002
}
  0
ENDTAB
  0
TABLE
  2
VIEW
  5
6
330
0
100
AcDbSymbolTable
 70
     0
  0
ENDTAB
  0
TABLE
  2
UCS
  5
7
330
0
100
AcDbSymbolTable
 70
     0
  0
ENDTAB
  0
TABLE
  2
APPID
  5
9
330
0
100
AcDbSymbolTable
 70
     4
  0
APPID
  5
56
330
9
100
AcDbSymbolTableRecord
100
AcDbRegAppTableRecord
  2
ACAD
 70
     0
  0
APPID
  5
5E
330
9
100
AcDbSymbolTableRecord
100
AcDbRegAppTableRecord
  2
AcadAnnotative
 70
     0
  0
APPID
  5
78
330
9
100
AcDbSymbolTableRecord
100
AcDbRegAppTableRecord
  2
EDIT_IN_FUSION_ACAD_ADDIN
 70
     0
  0
APPID
  5
79
330
9
100
AcDbSymbolTableRecord
100
AcDbRegAppTableRecord
  2
NFusion_SketchTransform
 70
     0
  0
ENDTAB
  0
TABLE
  2
DIMSTYLE
  5
A
330
0
100
AcDbSymbolTable
 70
     2
100
AcDbDimStyleTable
 71
     0
  0
DIMSTYLE
105
58
330
A
100
AcDbSymbolTableRecord
100
AcDbDimStyleTableRecord
  2
Standard
 70
     0
340
55
  0
DIMSTYLE
105
59
330
A
100
AcDbSymbolTableRecord
100
AcDbDimStyleTableRecord
  2
Annotative
 70
     0
340
55
1001
AcadAnnotative
1000
AnnotativeData
1002
{
1070
     1
1070
     1
1002
}
  0
ENDTAB
  0
TABLE
  2
BLOCK_RECORD
  5
1
330
0
100
AcDbSymbolTable
 70
     1
  0
BLOCK_RECORD
  5
70
330
1
100
AcDbSymbolTableRecord
100
AcDbBlockTableRecord
  2
*Model_Space
340
73
 70
     0
280
     1
281
     0
  0
BLOCK_RECORD
  5
6C
330
1
100
AcDbSymbolTableRecord
100
AcDbBlockTableRecord
  2
*Paper_Space
340
6F
 70
     0
280
     1
281
     0
  0
BLOCK_RECORD
  5
74
330
1
100
AcDbSymbolTableRecord
100
AcDbBlockTableRecord
  2
*Paper_Space0
340
77
 70
     0
280
     1
281
     0
  0
ENDTAB
  0
ENDSEC
  0
SECTION
  2
BLOCKS
  0
BLOCK
  5
71
330
70
100
AcDbEntity
  8
0
100
AcDbBlockBegin
  2
*Model_Space
 70
     0
 10
0.0
 20
0.0
 30
0.0
  3
*Model_Space
  1

  0
ENDBLK
  5
72
330
70
100
AcDbEntity
  8
0
100
AcDbBlockEnd
  0
BLOCK
  5
6D
330
6C
100
AcDbEntity
 67
     1
  8
0
100
AcDbBlockBegin
  2
*Paper_Space
 70
     0
 10
0.0
 20
0.0
 30
0.0
  3
*Paper_Space
  1

  0
ENDBLK
  5
6E
330
6C
100
AcDbEntity
 67
     1
  8
0
100
AcDbBlockEnd
  0
BLOCK
  5
75
330
74
100
AcDbEntity
 67
     1
  8
0
100
AcDbBlockBegin
  2
*Paper_Space0
 70
     0
 10
0.0
 20
0.0
 30
0.0
  3
*Paper_Space0
  1

  0
ENDBLK
  5
76
330
74
100
AcDbEntity
 67
     1
  8
0
100
AcDbBlockEnd
  0
ENDSEC
  0
SECTION
  2
ENTITIES
  0
POINT
  5
7B
330
70
100
AcDbEntity
  8
cyl v2_Sketch1
100
AcDbPoint
 10
0.0
 20
0.0
 30
0.0
  0
LINE
  5
7C
330
70
100
AcDbEntity
  8
cyl v2_Sketch1
100
AcDbLine
 10
0.3888702044093981
 20
-5.065094270013401
 30
0.0
 11
0.4120646280188563
 21
-5.367205207772074
 31
0.0
  0
LINE
  5
7D
330
70
100
AcDbEntity
  8
cyl v2_Sketch1
100
AcDbLine
 10
4.263976364750306
 20
-2.761323154006202
 30
0.0
 11
4.518304088868287
 21
-2.926024121656572
 31
0.0
  0
ARC
  5
7E
330
70
100
AcDbEntity
  8
cyl v2_Sketch1
100
AcDbCircle
 10
0.0
 20
0.0
 30
0.0
 40
5.383
100
AcDbArc
 50
340.3533907579323
 51
344.6341463414636
  0
ARC
  5
7F
330
70
100
AcDbEntity
  8
cyl v2_Sketch1
100
AcDbCircle
 10
0.0
 20
0.0
 30
0.0
 40
5.383
100
AcDbArc
 50
349.1338785628104
 51
353.4146341463414
  0
ARC
  5
80
330
70
100
AcDbEntity
  8
cyl v2_Sketch1
100
AcDbCircle
 10
0.0
 20
0.0
 30
0.0
 40
5.383
100
AcDbArc
 50
41.81680539207862
 51
46.09756097560971
  0
ARC
  5
81
330
70
100
AcDbEntity
  8
cyl v2_Sketch1
100
AcDbCircle
 10
0.0
 20
0.0
 30
0.0
 40
5.383
100
AcDbArc
 50
278.889976123786
 51
283.1707317073171
  0
LINE
  5
82
330
70
100
AcDbEntity
  8
cyl v2_Sketch1
100
AcDbLine
 10
3.801111697653693
 20
3.370155762269788
 30
0.0
 11
4.011844755820554
 21
3.589121153596674
 31
0.0
  0
LINE
  5
83
330
70
100
AcDbEntity
  8
cyl v2_Sketch1
100
AcDbLine
 10
3.522637104024588
 20
3.660249695491997
 30
0.0
 11
3.732747151764638
 21
3.878567738353035
 31
0.0
  0
LINE
  5
84
330
70
100
AcDbEntity
  8
cyl v2_Sketch1
100
AcDbLine
 10
5.618585758213764
 20
-3.27383223068642
 30
0.0
 11
5.618585758213764
 21
-3.655246472472656
 31
0.0
  0
LINE
  5
85
330
70
100
AcDbEntity
  8
cyl v2_Sketch1
100
AcDbLine
 10
5.047954358941895
 20
0.5696988590821514
 30
0.0
 11
5.346293990073162
 21
0.6275584209518542
 31
0.0
  0
ARC
  5
86
330
70
100
AcDbEntity
  8
cyl v2_Sketch1
100
AcDbCircle
 10
0.0
 20
0.0
 30
0.0
 40
5.383
100
AcDbArc
 50
331.5729029530543
 51
335.8536585365856
  0
ARC
  5
87
330
70
100
AcDbEntity
  8
cyl v2_Sketch1
100
AcDbCircle
 10
0.0
 20
0.0
 30
0.0
 40
5.383
100
AcDbArc
 50
15.47534197744452
 51
19.75609756097562
  0
ARC
  5
88
330
70
100
AcDbEntity
  8
cyl v2_Sketch1
100
AcDbCircle
 10
0.0
 20
0.0
 30
0.0
 40
5.383
100
AcDbArc
 50
50.59729319695669
 51
54.87804878048778
  0
LINE
  5
89
330
70
100
AcDbEntity
  8
cyl v2_Sketch1
100
AcDbLine
 10
2.922618793910591
 20
4.155081152694926
 30
0.0
 11
3.096940347956833
 21
4.402913749007241
 31
0.0
  0
LINE
  5
8A
330
70
100
AcDbEntity
  8
cyl v2_Sketch1
100
AcDbLine
 10
-25.87111874004038
 20
-5.404521168854793
 30
0.0
 11
-9.909318740040376
 21
-5.404521168854793
 31
0.0
  0
LINE
  5
8B
330
70
100
AcDbEntity
  8
cyl v2_Sketch1
100
AcDbLine
 10
0.7626312547540297
 20
-5.022429050695717
 30
0.0
 11
0.8318755816212448
 21
-5.318333575162648
 31
0.0
  0
LINE
  5
8C
330
70
100
AcDbEntity
  8
cyl v2_Sketch1
100
AcDbLine
 10
1.15749582522794
 20
-4.946372753299116
 30
0.0
 11
1.226535438425591
 21
-5.241402466734083
 31
0.0
  0
LINE
  5
8D
330
70
100
AcDbEntity
  8
cyl v2_Sketch1
100
AcDbLine
 10
2.242460186328611
 20
-4.55826417759338
 30
0.0
 11
2.397757967983274
 21
-4.819486043861184
 31
0.0
  0
ARC
  5
8E
330
70
100
AcDbEntity
  8
cyl v2_Sketch1
100
AcDbCircle
 10
0.0
 20
0.0
 30
0.0
 40
5.383
100
AcDbArc
 50
322.7924151481762
 51
327.0731707317073
  0
LINE
  5
8F
330
70
100
AcDbEntity
  8
cyl v2_Sketch1
100
AcDbLine
 10
3.232111607018924
 20
-3.919165033495469
 30
0.0
 11
3.424893067043872
 21
-4.152926254981517
 31
0.0
  0
ARC
  5
90
330
70
100
AcDbEntity
  8
cyl v2_Sketch1
100
AcDbCircle
 10
0.0
 20
0.0
 30
0.0
 40
5.383
100
AcDbArc
 50
305.2314395384201
 51
309.5121951219514
  0
ARC
  5
91
330
70
100
AcDbEntity
  8
cyl v2_Sketch1
100
AcDbCircle
 10
0.0
 20
0.0
 30
0.0
 40
5.382999999999999
100
AcDbArc
 50
357.9143663676884
 51
2.195121951219651
  0
LINE
  5
92
330
70
100
AcDbEntity
  8
cyl v2_Sketch1
100
AcDbLine
 10
4.901830350019753
 20
1.333588849542918
 30
0.0
 11
5.187841346400007
 21
1.436311653013564
 31
0.0
  0
LINE
  5
93
330
70
100
AcDbEntity
  8
cyl v2_Sketch1
100
AcDbLine
 10
0.0
 20
0.0
 30
0.0
 11
0.0
 21
5.08
 31
0.0
  0
LINE
  5
94
330
70
100
AcDbEntity
  8
cyl v2_Sketch1
100
AcDbLine
 10
4.6408115922919
 20
2.066220647667891
 30
0.0
 11
4.907790098577665
 21
2.211398957289939
 31
0.0
  0
ARC
  5
95
330
70
100
AcDbEntity
  8
cyl v2_Sketch1
100
AcDbCircle
 10
0.0
 20
0.0
 30
0.0
 40
5.382999999999999
100
AcDbArc
 50
33.03631758720061
 51
37.31707317073187
  0
LINE
  5
96
330
70
100
AcDbEntity
  8
cyl v2_Sketch1
100
AcDbLine
 10
3.79249036578877
 20
-3.379854556841071
 30
0.0
 11
4.018695991937194
 21
-3.581448243991237
 31
0.0
  0
ARC
  5
97
330
70
100
AcDbEntity
  8
cyl v2_Sketch1
100
AcDbCircle
 10
0.0
 20
0.0
 30
0.0
 40
5.383
100
AcDbArc
 50
24.25582978232253
 51
28.53658536585363
  0
LINE
  5
98
330
70
100
AcDbEntity
  8
cyl v2_Sketch1
100
AcDbLine
 10
3.242112414577031
 20
3.910895944824598
 30
0.0
 11
3.416950860351951
 21
4.159463405048787
 31
0.0
  0
LINE
  5
99
330
70
100
AcDbEntity
  8
cyl v2_Sketch1
100
AcDbLine
 10
0.4018075195579083
 20
5.064084390808146
 30
0.0
 11
0.4018075195579083
 21
5.367982835034657
 31
0.0
  0
ARC
  5
9A
330
70
100
AcDbEntity
  8
cyl v2_Sketch1
100
AcDbCircle
 10
0.0
 20
0.0
 30
0.0
 40
5.382999999999999
100
AcDbArc
 50
85.71924441646888
 51
89.99999999999998
  0
LINE
  5
9B
330
70
100
AcDbEntity
  8
cyl v2_Sketch1
100
AcDbLine
 10
1.520363739265233
 20
-4.847153195467154
 30
0.0
 11
1.633966165822952
 21
-5.129019747373355
 31
0.0
  0
LINE
  5
9C
330
70
100
AcDbEntity
  8
cyl v2_Sketch1
100
AcDbLine
 10
5.046482615979149
 20
-0.5825918010238728
 30
0.0
 11
5.347483449176331
 21
-0.6173408789195881
 31
0.0
  0
LINE
  5
9D
330
70
100
AcDbEntity
  8
cyl v2_Sketch1
100
AcDbLine
 10
2.595974891591321
 20
-4.366613603494982
 30
0.0
 11
2.750813551463795
 21
-4.627063194412103
 31
0.0
  0
LINE
  5
9E
330
70
100
AcDbEntity
  8
cyl v2_Sketch1
100
AcDbLine
 10
4.780991443736171
 20
1.717125742315197
 30
0.0
 11
5.066156878273978
 21
1.819544856472973
 31
0.0
  0
ARC
  5
9F
330
70
100
AcDbEntity
  8
cyl v2_Sketch1
100
AcDbCircle
 10
0.0
 20
0.0
 30
0.0
 40
5.383
100
AcDbArc
 50
287.670463928664
 51
291.9512195121949
  0
LINE
  5
A0
330
70
100
AcDbEntity
  8
cyl v2_Sketch1
100
AcDbLine
 10
4.635518371700874
 20
-2.078068676830403
 30
0.0
 11
4.912006967493269
 21
-2.202016473893319
 31
0.0
  0
ARC
  5
A1
330
70
100
AcDbEntity
  8
cyl v2_Sketch1
100
AcDbCircle
 10
0.0
 20
0.0
 30
0.0
 40
5.383
100
AcDbArc
 50
59.37778100183476
 51
63.65853658536586
  0
LINE
  5
A2
330
70
100
AcDbEntity
  8
cyl v2_Sketch1
100
AcDbLine
 10
4.898407756901955
 20
-1.34610603115904
 30
0.0
 11
5.190576566024257
 21
-1.426395426324628
 31
0.0
  0
LINE
  5
A3
330
70
100
AcDbEntity
  8
cyl v2_Sketch1
100
AcDbLine
 10
-26.97082915974019
 20
0.9454788311452073
 30
0.0
 11
-9.909318740040376
 21
0.9454788311452073
 31
0.0
  0
LINE
  5
A4
330
70
100
AcDbEntity
  8
cyl v2_Sketch1
100
AcDbLine
 10
2.607120764389743
 20
4.359968041154412
 30
0.0
 11
2.741966532789951
 21
4.632311359684261
 31
0.0
  0
LINE
  5
A5
330
70
100
AcDbEntity
  8
cyl v2_Sketch1
100
AcDbLine
 10
2.254096776364153
 20
4.552521029362163
 30
0.0
 11
2.388543887237841
 21
4.824059193121363
 31
0.0
  0
ARC
  5
A6
330
70
100
AcDbEntity
  8
cyl v2_Sketch1
100
AcDbCircle
 10
0.0
 20
0.0
 30
0.0
 40
5.383
100
AcDbArc
 50
68.15826880671278
 51
72.43902439024387
  0
LINE
  5
A7
330
70
100
AcDbEntity
  8
cyl v2_Sketch1
100
AcDbLine
 10
0.0
 20
5.08
 30
0.0
 11
0.0
 21
5.383
 31
0.0
  0
ARC
  5
A8
330
70
100
AcDbEntity
  8
cyl v2_Sketch1
100
AcDbCircle
 10
0.0
 20
0.0
 30
0.0
 40
5.383
100
AcDbArc
 50
270.1094883189079
 51
274.390243902439
  0
ARC
  5
A9
330
70
100
AcDbEntity
  8
cyl v2_Sketch1
100
AcDbCircle
 10
0.0
 20
0.0
 30
0.0
 40
5.383
100
AcDbArc
 50
296.4509517335421
 51
300.731707317073
  0
LINE
  5
AA
330
70
100
AcDbEntity
  8
cyl v2_Sketch1
100
AcDbLine
 10
4.032207823680677
 20
-3.089935285187755
 30
0.0
 11
4.287289670819699
 21
-3.255124617965142
 31
0.0
  0
LINE
  5
AB
330
70
100
AcDbEntity
  8
cyl v2_Sketch1
100
AcDbLine
 10
-0.0129766599923331
 20
-5.079983425789442
 30
0.0
 11
0.0102865388513798
 21
-5.38299017156064
 31
0.0
  0
LINE
  5
AC
330
70
100
AcDbEntity
  8
cyl v2_Sketch1
100
AcDbLine
 10
4.776589514980076
 20
-1.729332994360077
 30
0.0
 11
5.06962465208826
 21
-1.809860460626446
 31
0.0
  0
LINE
  5
AD
330
70
100
AcDbEntity
  8
cyl v2_Sketch1
100
AcDbLine
 10
0.0
 20
-5.08
 30
0.0
 11
0.0
 21
0.0
 31
0.0
  0
LINE
  5
AE
330
70
100
AcDbEntity
  8
cyl v2_Sketch1
100
AcDbLine
 10
3.513275647191021
 20
-3.669236191205808
 30
0.0
 11
3.740152009771186
 21
-3.871427636390037
 31
0.0
  0
LINE
  5
AF
330
70
100
AcDbEntity
  8
cyl v2_Sketch1
100
AcDbLine
 10
4.456628466324132
 20
-2.438208914992603
 30
0.0
 11
4.73393689572242
 21
-2.562524237410832
 31
0.0
  0
ARC
  5
B0
330
70
100
AcDbEntity
  8
cyl v2_Sketch1
100
AcDbCircle
 10
0.0
 20
0.0
 30
0.0
 40
5.383
100
AcDbArc
 50
314.0119273432982
 51
318.2926829268292
  0
LINE
  5
B1
330
70
100
AcDbEntity
  8
cyl v2_Sketch1
100
AcDbLine
 10
4.984591353854429
 20
-0.9799229740544262
 30
0.0
 11
5.286484703423758
 21
-1.014775088611567
 31
0.0
  0
LINE
  5
B2
330
70
100
AcDbEntity
  8
cyl v2_Sketch1
100
AcDbLine
 10
5.075758596138153
 20
-0.2075443897811402
 30
0.0
 11
5.379434033927662
 21
-0.1959042486031161
 31
0.0
  0
ARC
  5
B3
330
70
100
AcDbEntity
  8
cyl v2_Sketch1
100
AcDbCircle
 10
0.0
 20
0.0
 30
0.0
 40
5.383
100
AcDbArc
 50
6.694854172566453
 51
10.97560975609755
  0
LINE
  5
B4
330
70
100
AcDbEntity
  8
cyl v2_Sketch1
100
AcDbLine
 10
4.987078265584022
 20
0.9671868345565171
 30
0.0
 11
5.284535886543069
 21
1.024875340633411
 31
0.0
  0
LINE
  5
B5
330
70
100
AcDbEntity
  8
cyl v2_Sketch1
100
AcDbLine
 10
4.462842234627586
 20
2.426816678042295
 30
0.0
 11
4.729031446653602
 21
2.571565783051511
 31
0.0
  0
LINE
  5
B6
330
70
100
AcDbEntity
  8
cyl v2_Sketch1
100
AcDbLine
 10
2.911995267245564
 20
-4.16253331080238
 30
0.0
 11
3.105348355619482
 21
-4.396987672287855
 31
0.0
  0
LINE
  5
B7
330
70
100
AcDbEntity
  8
cyl v2_Sketch1
100
AcDbLine
 10
1.898990724951106
 20
-4.71171245159864
 30
0.0
 11
2.012257297718859
 21
-4.992745694282575
 31
0.0
  0
LINE
  5
B8
330
70
100
AcDbEntity
  8
cyl v2_Sketch1
100
AcDbLine
 10
4.271016144210228
 20
2.750421985058944
 30
0.0
 11
4.512704410494657
 21
2.934652944302283
 31
0.0
  0
LINE
  5
B9
330
70
100
AcDbEntity
  8
cyl v2_Sketch1
100
AcDbLine
 10
4.040087786069005
 20
3.079625087710522
 30
0.0
 11
4.281061526064853
 21
3.263311387233414
 31
0.0
  0
LINE
  5
BA
330
70
100
AcDbEntity
  8
cyl v2_Sketch1
100
AcDbLine
 10
5.076272199738114
 20
0.1945778871453795
 30
0.0
 11
5.37904985259651
 21
0.2061836154534602
 31
0.0
  0
LINE
  5
BB
330
70
100
AcDbEntity
  8
cyl v2_Sketch1
100
AcDbLine
 10
-9.909318740040376
 20
-5.404521168854793
 30
0.0
 11
-26.97082915974019
 21
-5.404521168854793
 31
0.0
  0
LINE
  5
BC
330
70
100
AcDbEntity
  8
cyl v2_Sketch1
100
AcDbLine
 10
-14.07382915974018
 20
0.5424788311452074
 30
0.0
 11
-14.47582915974018
 21
0.5424788311452074
 31
0.0
  0
LINE
  5
BD
330
70
100
AcDbEntity
  8
cyl v2_Sketch1
100
AcDbLine
 10
-13.24082915974018
 20
0.8454788311452073
 30
0.0
 11
-13.24082915974018
 21
0.5424788311452074
 31
0.0
  0
LINE
  5
BE
330
70
100
AcDbEntity
  8
cyl v2_Sketch1
100
AcDbLine
 10
-13.24082915974018
 20
0.5424788311452074
 30
0.0
 11
-13.64282915974018
 21
0.5424788311452074
 31
0.0
  0
LINE
  5
BF
330
70
100
AcDbEntity
  8
cyl v2_Sketch1
100
AcDbLine
 10
-12.80982915974018
 20
0.8454788311452073
 30
0.0
 11
-12.40782915974018
 21
0.8454788311452073
 31
0.0
  0
LINE
  5
C0
330
70
100
AcDbEntity
  8
cyl v2_Sketch1
100
AcDbLine
 10
-25.73582915974018
 20
0.5424788311452074
 30
0.0
 11
-26.13782915974019
 21
0.5424788311452074
 31
0.0
  0
LINE
  5
C1
330
70
100
AcDbEntity
  8
cyl v2_Sketch1
100
AcDbLine
 10
-20.30682915974018
 20
0.8454788311452073
 30
0.0
 11
-19.90482915974018
 21
0.8454788311452073
 31
0.0
  0
LINE
  5
C2
330
70
100
AcDbEntity
  8
cyl v2_Sketch1
100
AcDbLine
 10
-26.13782915974019
 20
0.8454788311452073
 30
0.0
 11
-25.73582915974018
 21
0.8454788311452073
 31
0.0
  0
LINE
  5
C3
330
70
100
AcDbEntity
  8
cyl v2_Sketch1
100
AcDbLine
 10
-12.40782915974018
 20
0.5424788311452074
 30
0.0
 11
-12.80982915974018
 21
0.5424788311452074
 31
0.0
  0
LINE
  5
C4
330
70
100
AcDbEntity
  8
cyl v2_Sketch1
100
AcDbLine
 10
-24.90282915974019
 20
0.8454788311452073
 30
0.0
 11
-24.90282915974019
 21
0.5424788311452074
 31
0.0
  0
LINE
  5
C5
330
70
100
AcDbEntity
  8
cyl v2_Sketch1
100
AcDbLine
 10
-11.97682915974018
 20
0.8454788311452073
 30
0.0
 11
-11.57482915974018
 21
0.8454788311452073
 31
0.0
  0
LINE
  5
C6
330
70
100
AcDbEntity
  8
cyl v2_Sketch1
100
AcDbLine
 10
-11.57482915974018
 20
0.8454788311452073
 30
0.0
 11
-11.57482915974018
 21
0.5424788311452074
 31
0.0
  0
LINE
  5
C7
330
70
100
AcDbEntity
  8
cyl v2_Sketch1
100
AcDbLine
 10
-12.40782915974018
 20
0.8454788311452073
 30
0.0
 11
-12.40782915974018
 21
0.5424788311452074
 31
0.0
  0
LINE
  5
C8
330
70
100
AcDbEntity
  8
cyl v2_Sketch1
100
AcDbLine
 10
-11.57482915974018
 20
0.5424788311452074
 30
0.0
 11
-11.97682915974018
 21
0.5424788311452074
 31
0.0
  0
LINE
  5
C9
330
70
100
AcDbEntity
  8
cyl v2_Sketch1
100
AcDbLine
 10
-11.14382915974018
 20
0.8454788311452073
 30
0.0
 11
-10.74182915974018
 21
0.8454788311452073
 31
0.0
  0
LINE
  5
CA
330
70
100
AcDbEntity
  8
cyl v2_Sketch1
100
AcDbLine
 10
-23.23682915974019
 20
0.8454788311452073
 30
0.0
 11
-23.23682915974019
 21
0.5424788311452074
 31
0.0
  0
LINE
  5
CB
330
70
100
AcDbEntity
  8
cyl v2_Sketch1
100
AcDbLine
 10
-24.06982915974019
 20
0.5424788311452074
 30
0.0
 11
-24.47182915974019
 21
0.5424788311452074
 31
0.0
  0
LINE
  5
CC
330
70
100
AcDbEntity
  8
cyl v2_Sketch1
100
AcDbLine
 10
-16.57282915974018
 20
0.5424788311452074
 30
0.0
 11
-16.97482915974018
 21
0.5424788311452074
 31
0.0
  0
LINE
  5
CD
330
70
100
AcDbEntity
  8
cyl v2_Sketch1
100
AcDbLine
 10
-13.64282915974018
 20
0.8454788311452073
 30
0.0
 11
-13.24082915974018
 21
0.8454788311452073
 31
0.0
  0
LINE
  5
CE
330
70
100
AcDbEntity
  8
cyl v2_Sketch1
100
AcDbLine
 10
-26.97082915974019
 20
0.9454788311452073
 30
0.0
 11
-26.97082915974019
 21
0.8454788311452073
 31
0.0
  0
LINE
  5
CF
330
70
100
AcDbEntity
  8
cyl v2_Sketch1
100
AcDbLine
 10
1.170127363187657
 20
4.943399837553047
 30
0.0
 11
1.216517243174063
 21
5.243736720799412
 31
0.0
  0
LINE
  5
D0
330
70
100
AcDbEntity
  8
cyl v2_Sketch1
100
AcDbLine
 10
-24.90282915974019
 20
0.5424788311452074
 30
0.0
 11
-25.30482915974019
 21
0.5424788311452074
 31
0.0
  0
LINE
  5
D1
330
70
100
AcDbEntity
  8
cyl v2_Sketch1
100
AcDbLine
 10
-24.47182915974019
 20
0.8454788311452073
 30
0.0
 11
-24.06982915974019
 21
0.8454788311452073
 31
0.0
  0
LINE
  5
D2
330
70
100
AcDbEntity
  8
cyl v2_Sketch1
100
AcDbLine
 10
-23.23682915974019
 20
0.5424788311452074
 30
0.0
 11
-23.63882915974019
 21
0.5424788311452074
 31
0.0
  0
LINE
  5
D3
330
70
100
AcDbEntity
  8
cyl v2_Sketch1
100
AcDbLine
 10
-26.97082915974019
 20
0.8454788311452073
 30
0.0
 11
-26.56882915974019
 21
0.8454788311452073
 31
0.0
  0
LINE
  5
D4
330
70
100
AcDbEntity
  8
cyl v2_Sketch1
100
AcDbLine
 10
-21.57082915974019
 20
0.5424788311452074
 30
0.0
 11
-21.97282915974019
 21
0.5424788311452074
 31
0.0
  0
LINE
  5
D5
330
70
100
AcDbEntity
  8
cyl v2_Sketch1
100
AcDbLine
 10
-20.73782915974019
 20
0.8454788311452073
 30
0.0
 11
-20.73782915974019
 21
0.5424788311452074
 31
0.0
  0
LINE
  5
D6
330
70
100
AcDbEntity
  8
cyl v2_Sketch1
100
AcDbLine
 10
-21.57082915974019
 20
0.8454788311452073
 30
0.0
 11
-21.57082915974019
 21
0.5424788311452074
 31
0.0
  0
ARC
  5
D7
330
70
100
AcDbEntity
  8
cyl v2_Sketch1
100
AcDbCircle
 10
0.0
 20
0.0
 30
0.0
 40
5.383
100
AcDbArc
 50
76.93875661159085
 51
81.21951219512196
  0
LINE
  5
D8
330
70
100
AcDbEntity
  8
cyl v2_Sketch1
100
AcDbLine
 10
-22.40382915974018
 20
0.8454788311452073
 30
0.0
 11
-22.40382915974018
 21
0.5424788311452074
 31
0.0
  0
LINE
  5
D9
330
70
100
AcDbEntity
  8
cyl v2_Sketch1
100
AcDbLine
 10
-20.73782915974019
 20
0.5424788311452074
 30
0.0
 11
-21.13982915974019
 21
0.5424788311452074
 31
0.0
  0
LINE
  5
DA
330
70
100
AcDbEntity
  8
cyl v2_Sketch1
100
AcDbLine
 10
-19.47382915974018
 20
0.8454788311452073
 30
0.0
 11
-19.07182915974018
 21
0.8454788311452073
 31
0.0
  0
LINE
  5
DB
330
70
100
AcDbEntity
  8
cyl v2_Sketch1
100
AcDbLine
 10
-16.97482915974018
 20
0.8454788311452073
 30
0.0
 11
-16.57282915974018
 21
0.8454788311452073
 31
0.0
  0
LINE
  5
DC
330
70
100
AcDbEntity
  8
cyl v2_Sketch1
100
AcDbLine
 10
-25.73582915974018
 20
0.8454788311452073
 30
0.0
 11
-25.73582915974018
 21
0.5424788311452074
 31
0.0
  0
LINE
  5
DD
330
70
100
AcDbEntity
  8
cyl v2_Sketch1
100
AcDbLine
 10
-19.07182915974018
 20
0.8454788311452073
 30
0.0
 11
-19.07182915974018
 21
0.5424788311452074
 31
0.0
  0
LINE
  5
DE
330
70
100
AcDbEntity
  8
cyl v2_Sketch1
100
AcDbLine
 10
-17.80782915974018
 20
0.8454788311452073
 30
0.0
 11
-17.40582915974018
 21
0.8454788311452073
 31
0.0
  0
LINE
  5
DF
330
70
100
AcDbEntity
  8
cyl v2_Sketch1
100
AcDbLine
 10
1.532740640863576
 20
4.843253671639047
 30
0.0
 11
1.62416198223792
 21
5.132132778431691
 31
0.0
  0
LINE
  5
E0
330
70
100
AcDbEntity
  8
cyl v2_Sketch1
100
AcDbLine
 10
-26.56882915974019
 20
0.8454788311452073
 30
0.0
 11
-26.56882915974019
 21
0.5424788311452074
 31
0.0
  0
LINE
  5
E1
330
70
100
AcDbEntity
  8
cyl v2_Sketch1
100
AcDbLine
 10
-16.57282915974018
 20
0.8454788311452073
 30
0.0
 11
-16.57282915974018
 21
0.5424788311452074
 31
0.0
  0
LINE
  5
E2
330
70
100
AcDbEntity
  8
cyl v2_Sketch1
100
AcDbLine
 10
-15.73982915974018
 20
0.5424788311452074
 30
0.0
 11
-16.14182915974018
 21
0.5424788311452074
 31
0.0
  0
LINE
  5
E3
330
70
100
AcDbEntity
  8
cyl v2_Sketch1
100
AcDbLine
 10
-15.30882915974018
 20
0.8454788311452073
 30
0.0
 11
-14.90682915974018
 21
0.8454788311452073
 31
0.0
  0
LINE
  5
E4
330
70
100
AcDbEntity
  8
cyl v2_Sketch1
100
AcDbLine
 10
-18.64082915974018
 20
0.8454788311452073
 30
0.0
 11
-18.23882915974018
 21
0.8454788311452073
 31
0.0
  0
LINE
  5
E5
330
70
100
AcDbEntity
  8
cyl v2_Sketch1
100
AcDbLine
 10
-14.47582915974018
 20
0.8454788311452073
 30
0.0
 11
-14.07382915974018
 21
0.8454788311452073
 31
0.0
  0
LINE
  5
E6
330
70
100
AcDbEntity
  8
cyl v2_Sketch1
100
AcDbLine
 10
-18.23882915974018
 20
0.5424788311452074
 30
0.0
 11
-18.64082915974018
 21
0.5424788311452074
 31
0.0
  0
LINE
  5
E7
330
70
100
AcDbEntity
  8
cyl v2_Sketch1
100
AcDbLine
 10
-18.23882915974018
 20
0.8454788311452073
 30
0.0
 11
-18.23882915974018
 21
0.5424788311452074
 31
0.0
  0
LINE
  5
E8
330
70
100
AcDbEntity
  8
cyl v2_Sketch1
100
AcDbLine
 10
-21.97282915974019
 20
0.8454788311452073
 30
0.0
 11
-21.57082915974019
 21
0.8454788311452073
 31
0.0
  0
LINE
  5
E9
330
70
100
AcDbEntity
  8
cyl v2_Sketch1
100
AcDbLine
 10
-19.07182915974018
 20
0.5424788311452074
 30
0.0
 11
-19.47382915974018
 21
0.5424788311452074
 31
0.0
  0
LINE
  5
EA
330
70
100
AcDbEntity
  8
cyl v2_Sketch1
100
AcDbLine
 10
1.911020413178254
 20
4.706846181937116
 30
0.0
 11
2.002712833682425
 21
4.996581862213778
 31
0.0
  0
LINE
  5
EB
330
70
100
AcDbEntity
  8
cyl v2_Sketch1
100
AcDbLine
 10
-22.40382915974018
 20
0.5424788311452074
 30
0.0
 11
-22.80582915974019
 21
0.5424788311452074
 31
0.0
  0
LINE
  5
EC
330
70
100
AcDbEntity
  8
cyl v2_Sketch1
100
AcDbLine
 10
-14.90682915974018
 20
0.8454788311452073
 30
0.0
 11
-14.90682915974018
 21
0.5424788311452074
 31
0.0
  0
LINE
  5
ED
330
70
100
AcDbEntity
  8
cyl v2_Sketch1
100
AcDbLine
 10
-15.73982915974018
 20
0.8454788311452073
 30
0.0
 11
-15.73982915974018
 21
0.5424788311452074
 31
0.0
  0
LINE
  5
EE
330
70
100
AcDbEntity
  8
cyl v2_Sketch1
100
AcDbLine
 10
-24.06982915974019
 20
0.8454788311452073
 30
0.0
 11
-24.06982915974019
 21
0.5424788311452074
 31
0.0
  0
LINE
  5
EF
330
70
100
AcDbEntity
  8
cyl v2_Sketch1
100
AcDbLine
 10
-23.63882915974019
 20
0.8454788311452073
 30
0.0
 11
-23.23682915974019
 21
0.8454788311452073
 31
0.0
  0
LINE
  5
F0
330
70
100
AcDbEntity
  8
cyl v2_Sketch1
100
AcDbLine
 10
-25.30482915974019
 20
0.8454788311452073
 30
0.0
 11
-24.90282915974019
 21
0.8454788311452073
 31
0.0
  0
LINE
  5
F1
330
70
100
AcDbEntity
  8
cyl v2_Sketch1
100
AcDbLine
 10
-22.80582915974019
 20
0.8454788311452073
 30
0.0
 11
-22.40382915974018
 21
0.8454788311452073
 31
0.0
  0
LINE
  5
F2
330
70
100
AcDbEntity
  8
cyl v2_Sketch1
100
AcDbLine
 10
-19.90482915974018
 20
0.8454788311452073
 30
0.0
 11
-19.90482915974018
 21
0.5424788311452074
 31
0.0
  0
LINE
  5
F3
330
70
100
AcDbEntity
  8
cyl v2_Sketch1
100
AcDbLine
 10
-17.40582915974018
 20
0.8454788311452073
 30
0.0
 11
-17.40582915974018
 21
0.5424788311452074
 31
0.0
  0
LINE
  5
F4
330
70
100
AcDbEntity
  8
cyl v2_Sketch1
100
AcDbLine
 10
-17.40582915974018
 20
0.5424788311452074
 30
0.0
 11
-17.80782915974018
 21
0.5424788311452074
 31
0.0
  0
LINE
  5
F5
330
70
100
AcDbEntity
  8
cyl v2_Sketch1
100
AcDbLine
 10
-26.56882915974019
 20
0.5424788311452074
 30
0.0
 11
-26.97082915974019
 21
0.5424788311452074
 31
0.0
  0
LINE
  5
F6
330
70
100
AcDbEntity
  8
cyl v2_Sketch1
100
AcDbLine
 10
-21.13982915974019
 20
0.8454788311452073
 30
0.0
 11
-20.73782915974019
 21
0.8454788311452073
 31
0.0
  0
LINE
  5
F7
330
70
100
AcDbEntity
  8
cyl v2_Sketch1
100
AcDbLine
 10
0.775458363831881
 20
5.02046455280417
 30
0.0
 11
0.8217110969501996
 21
5.319913521209616
 31
0.0
  0
LINE
  5
F8
330
70
100
AcDbEntity
  8
cyl v2_Sketch1
100
AcDbLine
 10
-19.90482915974018
 20
0.5424788311452074
 30
0.0
 11
-20.30682915974018
 21
0.5424788311452074
 31
0.0
  0
LINE
  5
F9
330
70
100
AcDbEntity
  8
cyl v2_Sketch1
100
AcDbLine
 10
-14.90682915974018
 20
0.5424788311452074
 30
0.0
 11
-15.30882915974018
 21
0.5424788311452074
 31
0.0
  0
LINE
  5
FA
330
70
100
AcDbEntity
  8
cyl v2_Sketch1
100
AcDbLine
 10
-16.14182915974018
 20
0.8454788311452073
 30
0.0
 11
-15.73982915974018
 21
0.8454788311452073
 31
0.0
  0
LINE
  5
FB
330
70
100
AcDbEntity
  8
cyl v2_Sketch1
100
AcDbLine
 10
-14.07382915974018
 20
0.8454788311452073
 30
0.0
 11
-14.07382915974018
 21
0.5424788311452074
 31
0.0
  0
LINE
  5
FC
330
70
100
AcDbEntity
  8
cyl v2_Sketch1
100
AcDbLine
 10
-19.90482915974018
 20
-4.954521168854792
 30
0.0
 11
-19.90482915974018
 21
-5.257521168854793
 31
0.0
  0
LINE
  5
FD
330
70
100
AcDbEntity
  8
cyl v2_Sketch1
100
AcDbLine
 10
-21.13982915974019
 20
-4.954521168854792
 30
0.0
 11
-20.73782915974019
 21
-4.954521168854792
 31
0.0
  0
LINE
  5
FE
330
70
100
AcDbEntity
  8
cyl v2_Sketch1
100
AcDbLine
 10
-20.73782915974019
 20
-4.954521168854792
 30
0.0
 11
-20.73782915974019
 21
-5.257521168854793
 31
0.0
  0
LINE
  5
FF
330
70
100
AcDbEntity
  8
cyl v2_Sketch1
100
AcDbLine
 10
-17.40582915974018
 20
-4.954521168854792
 30
0.0
 11
-17.40582915974018
 21
-5.257521168854793
 31
0.0
  0
LINE
  5
100
330
70
100
AcDbEntity
  8
cyl v2_Sketch1
100
AcDbLine
 10
-15.30882915974018
 20
-4.954521168854792
 30
0.0
 11
-14.90682915974018
 21
-4.954521168854792
 31
0.0
  0
LINE
  5
101
330
70
100
AcDbEntity
  8
cyl v2_Sketch1
100
AcDbLine
 10
-24.47182915974019
 20
-4.954521168854792
 30
0.0
 11
-24.06982915974019
 21
-4.954521168854792
 31
0.0
  0
LINE
  5
102
330
70
100
AcDbEntity
  8
cyl v2_Sketch1
100
AcDbLine
 10
-26.56882915974019
 20
-4.954521168854792
 30
0.0
 11
-26.56882915974019
 21
-5.257521168854793
 31
0.0
  0
LINE
  5
103
330
70
100
AcDbEntity
  8
cyl v2_Sketch1
100
AcDbLine
 10
-19.47382915974018
 20
-4.954521168854792
 30
0.0
 11
-19.07182915974018
 21
-4.954521168854792
 31
0.0
  0
LINE
  5
104
330
70
100
AcDbEntity
  8
cyl v2_Sketch1
100
AcDbLine
 10
-26.56882915974019
 20
-5.257521168854793
 30
0.0
 11
-26.97082915974019
 21
-5.257521168854793
 31
0.0
  0
LINE
  5
105
330
70
100
AcDbEntity
  8
cyl v2_Sketch1
100
AcDbLine
 10
-26.13782915974019
 20
-4.954521168854792
 30
0.0
 11
-25.73582915974018
 21
-4.954521168854792
 31
0.0
  0
LINE
  5
106
330
70
100
AcDbEntity
  8
cyl v2_Sketch1
100
AcDbLine
 10
-23.63882915974019
 20
-4.954521168854792
 30
0.0
 11
-23.23682915974019
 21
-4.954521168854792
 31
0.0
  0
LINE
  5
107
330
70
100
AcDbEntity
  8
cyl v2_Sketch1
100
AcDbLine
 10
-18.23882915974018
 20
-5.257521168854793
 30
0.0
 11
-18.64082915974018
 21
-5.257521168854793
 31
0.0
  0
LINE
  5
108
330
70
100
AcDbEntity
  8
cyl v2_Sketch1
100
AcDbLine
 10
-16.57282915974018
 20
-5.257521168854793
 30
0.0
 11
-16.97482915974018
 21
-5.257521168854793
 31
0.0
  0
LINE
  5
109
330
70
100
AcDbEntity
  8
cyl v2_Sketch1
100
AcDbLine
 10
-13.64282915974018
 20
-4.954521168854792
 30
0.0
 11
-13.24082915974018
 21
-4.954521168854792
 31
0.0
  0
LINE
  5
10A
330
70
100
AcDbEntity
  8
cyl v2_Sketch1
100
AcDbLine
 10
-24.90282915974019
 20
-4.954521168854792
 30
0.0
 11
-24.90282915974019
 21
-5.257521168854793
 31
0.0
  0
LINE
  5
10B
330
70
100
AcDbEntity
  8
cyl v2_Sketch1
100
AcDbLine
 10
-20.30682915974018
 20
-4.954521168854792
 30
0.0
 11
-19.90482915974018
 21
-4.954521168854792
 31
0.0
  0
LINE
  5
10C
330
70
100
AcDbEntity
  8
cyl v2_Sketch1
100
AcDbLine
 10
-10.74182915974018
 20
0.5424788311452074
 30
0.0
 11
-11.14382915974018
 21
0.5424788311452074
 31
0.0
  0
LINE
  5
10D
330
70
100
AcDbEntity
  8
cyl v2_Sketch1
100
AcDbLine
 10
-15.73982915974018
 20
-5.257521168854793
 30
0.0
 11
-16.14182915974018
 21
-5.257521168854793
 31
0.0
  0
LINE
  5
10E
330
70
100
AcDbEntity
  8
cyl v2_Sketch1
100
AcDbLine
 10
-13.24082915974018
 20
-5.257521168854793
 30
0.0
 11
-13.64282915974018
 21
-5.257521168854793
 31
0.0
  0
LINE
  5
10F
330
70
100
AcDbEntity
  8
cyl v2_Sketch1
100
AcDbLine
 10
-12.80982915974018
 20
-4.954521168854792
 30
0.0
 11
-12.40782915974018
 21
-4.954521168854792
 31
0.0
  0
LINE
  5
110
330
70
100
AcDbEntity
  8
cyl v2_Sketch1
100
AcDbLine
 10
-20.73782915974019
 20
-5.257521168854793
 30
0.0
 11
-21.13982915974019
 21
-5.257521168854793
 31
0.0
  0
LINE
  5
111
330
70
100
AcDbEntity
  8
cyl v2_Sketch1
100
AcDbLine
 10
-12.40782915974018
 20
-4.954521168854792
 30
0.0
 11
-12.40782915974018
 21
-5.257521168854793
 31
0.0
  0
LINE
  5
112
330
70
100
AcDbEntity
  8
cyl v2_Sketch1
100
AcDbLine
 10
-25.73582915974018
 20
-4.954521168854792
 30
0.0
 11
-25.73582915974018
 21
-5.257521168854793
 31
0.0
  0
LINE
  5
113
330
70
100
AcDbEntity
  8
cyl v2_Sketch1
100
AcDbLine
 10
-16.14182915974018
 20
-4.954521168854792
 30
0.0
 11
-15.73982915974018
 21
-4.954521168854792
 31
0.0
  0
LINE
  5
114
330
70
100
AcDbEntity
  8
cyl v2_Sketch1
100
AcDbLine
 10
-11.57482915974018
 20
-4.954521168854792
 30
0.0
 11
-11.57482915974018
 21
-5.257521168854793
 31
0.0
  0
LINE
  5
115
330
70
100
AcDbEntity
  8
cyl v2_Sketch1
100
AcDbLine
 10
-10.74182915974018
 20
0.8454788311452073
 30
0.0
 11
-10.74182915974018
 21
0.5424788311452074
 31
0.0
  0
LINE
  5
116
330
70
100
AcDbEntity
  8
cyl v2_Sketch1
100
AcDbLine
 10
-17.80782915974018
 20
-4.954521168854792
 30
0.0
 11
-17.40582915974018
 21
-4.954521168854792
 31
0.0
  0
LINE
  5
117
330
70
100
AcDbEntity
  8
cyl v2_Sketch1
100
AcDbLine
 10
-21.57082915974019
 20
-4.954521168854792
 30
0.0
 11
-21.57082915974019
 21
-5.257521168854793
 31
0.0
  0
LINE
  5
118
330
70
100
AcDbEntity
  8
cyl v2_Sketch1
100
AcDbLine
 10
-9.908829159740182
 20
0.5424788311452074
 30
0.0
 11
-10.31082915974018
 21
0.5424788311452074
 31
0.0
  0
LINE
  5
119
330
70
100
AcDbEntity
  8
cyl v2_Sketch1
100
AcDbLine
 10
-14.47582915974018
 20
-4.954521168854792
 30
0.0
 11
-14.07382915974018
 21
-4.954521168854792
 31
0.0
  0
LINE
  5
11A
330
70
100
AcDbEntity
  8
cyl v2_Sketch1
100
AcDbLine
 10
-14.07382915974018
 20
-4.954521168854792
 30
0.0
 11
-14.07382915974018
 21
-5.257521168854793
 31
0.0
  0
LINE
  5
11B
330
70
100
AcDbEntity
  8
cyl v2_Sketch1
100
AcDbLine
 10
-16.97482915974018
 20
-4.954521168854792
 30
0.0
 11
-16.57282915974018
 21
-4.954521168854792
 31
0.0
  0
LINE
  5
11C
330
70
100
AcDbEntity
  8
cyl v2_Sketch1
100
AcDbLine
 10
-22.80582915974019
 20
-4.954521168854792
 30
0.0
 11
-22.40382915974018
 21
-4.954521168854792
 31
0.0
  0
LINE
  5
11D
330
70
100
AcDbEntity
  8
cyl v2_Sketch1
100
AcDbLine
 10
-11.97682915974018
 20
-4.954521168854792
 30
0.0
 11
-11.57482915974018
 21
-4.954521168854792
 31
0.0
  0
LINE
  5
11E
330
70
100
AcDbEntity
  8
cyl v2_Sketch1
100
AcDbLine
 10
-25.30482915974019
 20
-4.954521168854792
 30
0.0
 11
-24.90282915974019
 21
-4.954521168854792
 31
0.0
  0
LINE
  5
11F
330
70
100
AcDbEntity
  8
cyl v2_Sketch1
100
AcDbLine
 10
-24.06982915974019
 20
-5.257521168854793
 30
0.0
 11
-24.47182915974019
 21
-5.257521168854793
 31
0.0
  0
LINE
  5
120
330
70
100
AcDbEntity
  8
cyl v2_Sketch1
100
AcDbLine
 10
-12.40782915974018
 20
-5.257521168854793
 30
0.0
 11
-12.80982915974018
 21
-5.257521168854793
 31
0.0
  0
LINE
  5
121
330
70
100
AcDbEntity
  8
cyl v2_Sketch1
100
AcDbLine
 10
-24.06982915974019
 20
-4.954521168854792
 30
0.0
 11
-24.06982915974019
 21
-5.257521168854793
 31
0.0
  0
LINE
  5
122
330
70
100
AcDbEntity
  8
cyl v2_Sketch1
100
AcDbLine
 10
-11.14382915974018
 20
-4.954521168854792
 30
0.0
 11
-10.74182915974018
 21
-4.954521168854792
 31
0.0
  0
LINE
  5
123
330
70
100
AcDbEntity
  8
cyl v2_Sketch1
100
AcDbLine
 10
-14.90682915974018
 20
-4.954521168854792
 30
0.0
 11
-14.90682915974018
 21
-5.257521168854793
 31
0.0
  0
LINE
  5
124
330
70
100
AcDbEntity
  8
cyl v2_Sketch1
100
AcDbLine
 10
-10.74182915974018
 20
-4.954521168854792
 30
0.0
 11
-10.74182915974018
 21
-5.257521168854793
 31
0.0
  0
LINE
  5
125
330
70
100
AcDbEntity
  8
cyl v2_Sketch1
100
AcDbLine
 10
-10.74182915974018
 20
-5.257521168854793
 30
0.0
 11
-11.14382915974018
 21
-5.257521168854793
 31
0.0
  0
LINE
  5
126
330
70
100
AcDbEntity
  8
cyl v2_Sketch1
100
AcDbLine
 10
-21.97282915974019
 20
-4.954521168854792
 30
0.0
 11
-21.57082915974019
 21
-4.954521168854792
 31
0.0
  0
LINE
  5
127
330
70
100
AcDbEntity
  8
cyl v2_Sketch1
100
AcDbLine
 10
-14.90682915974018
 20
-5.257521168854793
 30
0.0
 11
-15.30882915974018
 21
-5.257521168854793
 31
0.0
  0
LINE
  5
128
330
70
100
AcDbEntity
  8
cyl v2_Sketch1
100
AcDbLine
 10
-26.97082915974019
 20
-4.954521168854792
 30
0.0
 11
-26.56882915974019
 21
-4.954521168854792
 31
0.0
  0
LINE
  5
129
330
70
100
AcDbEntity
  8
cyl v2_Sketch1
100
AcDbLine
 10
-18.23882915974018
 20
-4.954521168854792
 30
0.0
 11
-18.23882915974018
 21
-5.257521168854793
 31
0.0
  0
LINE
  5
12A
330
70
100
AcDbEntity
  8
cyl v2_Sketch1
100
AcDbLine
 10
-23.23682915974019
 20
-5.257521168854793
 30
0.0
 11
-23.63882915974019
 21
-5.257521168854793
 31
0.0
  0
LINE
  5
12B
330
70
100
AcDbEntity
  8
cyl v2_Sketch1
100
AcDbLine
 10
-14.07382915974018
 20
-5.257521168854793
 30
0.0
 11
-14.47582915974018
 21
-5.257521168854793
 31
0.0
  0
LINE
  5
12C
330
70
100
AcDbEntity
  8
cyl v2_Sketch1
100
AcDbLine
 10
-13.24082915974018
 20
-4.954521168854792
 30
0.0
 11
-13.24082915974018
 21
-5.257521168854793
 31
0.0
  0
LINE
  5
12D
330
70
100
AcDbEntity
  8
cyl v2_Sketch1
100
AcDbLine
 10
-19.07182915974018
 20
-4.954521168854792
 30
0.0
 11
-19.07182915974018
 21
-5.257521168854793
 31
0.0
  0
LINE
  5
12E
330
70
100
AcDbEntity
  8
cyl v2_Sketch1
100
AcDbLine
 10
-15.73982915974018
 20
-4.954521168854792
 30
0.0
 11
-15.73982915974018
 21
-5.257521168854793
 31
0.0
  0
LINE
  5
12F
330
70
100
AcDbEntity
  8
cyl v2_Sketch1
100
AcDbLine
 10
-25.73582915974018
 20
-5.257521168854793
 30
0.0
 11
-26.13782915974019
 21
-5.257521168854793
 31
0.0
  0
LINE
  5
130
330
70
100
AcDbEntity
  8
cyl v2_Sketch1
100
AcDbLine
 10
-21.57082915974019
 20
-5.257521168854793
 30
0.0
 11
-21.97282915974019
 21
-5.257521168854793
 31
0.0
  0
LINE
  5
131
330
70
100
AcDbEntity
  8
cyl v2_Sketch1
100
AcDbLine
 10
-11.57482915974018
 20
-5.257521168854793
 30
0.0
 11
-11.97682915974018
 21
-5.257521168854793
 31
0.0
  0
LINE
  5
132
330
70
100
AcDbEntity
  8
cyl v2_Sketch1
100
AcDbLine
 10
-19.90482915974018
 20
-5.257521168854793
 30
0.0
 11
-20.30682915974018
 21
-5.257521168854793
 31
0.0
  0
LINE
  5
133
330
70
100
AcDbEntity
  8
cyl v2_Sketch1
100
AcDbLine
 10
-10.31082915974018
 20
0.8454788311452073
 30
0.0
 11
-9.908829159740182
 21
0.8454788311452073
 31
0.0
  0
LINE
  5
134
330
70
100
AcDbEntity
  8
cyl v2_Sketch1
100
AcDbLine
 10
-22.40382915974018
 20
-5.257521168854793
 30
0.0
 11
-22.80582915974019
 21
-5.257521168854793
 31
0.0
  0
LINE
  5
135
330
70
100
AcDbEntity
  8
cyl v2_Sketch1
100
AcDbLine
 10
-24.90282915974019
 20
-5.257521168854793
 30
0.0
 11
-25.30482915974019
 21
-5.257521168854793
 31
0.0
  0
LINE
  5
136
330
70
100
AcDbEntity
  8
cyl v2_Sketch1
100
AcDbLine
 10
-18.64082915974018
 20
-4.954521168854792
 30
0.0
 11
-18.23882915974018
 21
-4.954521168854792
 31
0.0
  0
LINE
  5
137
330
70
100
AcDbEntity
  8
cyl v2_Sketch1
100
AcDbLine
 10
-22.40382915974018
 20
-4.954521168854792
 30
0.0
 11
-22.40382915974018
 21
-5.257521168854793
 31
0.0
  0
LINE
  5
138
330
70
100
AcDbEntity
  8
cyl v2_Sketch1
100
AcDbLine
 10
-17.40582915974018
 20
-5.257521168854793
 30
0.0
 11
-17.80782915974018
 21
-5.257521168854793
 31
0.0
  0
LINE
  5
139
330
70
100
AcDbEntity
  8
cyl v2_Sketch1
100
AcDbLine
 10
-23.23682915974019
 20
-4.954521168854792
 30
0.0
 11
-23.23682915974019
 21
-5.257521168854793
 31
0.0
  0
LINE
  5
13A
330
70
100
AcDbEntity
  8
cyl v2_Sketch1
100
AcDbLine
 10
-19.07182915974018
 20
-5.257521168854793
 30
0.0
 11
-19.47382915974018
 21
-5.257521168854793
 31
0.0
  0
LINE
  5
13B
330
70
100
AcDbEntity
  8
cyl v2_Sketch1
100
AcDbLine
 10
-16.57282915974018
 20
-4.954521168854792
 30
0.0
 11
-16.57282915974018
 21
-5.257521168854793
 31
0.0
  0
LINE
  5
13C
330
70
100
AcDbEntity
  8
cyl v2_Sketch1
100
AcDbLine
 10
-21.97282915974019
 20
0.8454788311452073
 30
0.0
 11
-21.97282915974019
 21
0.5424788311452074
 31
0.0
  0
LINE
  5
13D
330
70
100
AcDbEntity
  8
cyl v2_Sketch1
100
AcDbLine
 10
-18.64082915974018
 20
0.8454788311452073
 30
0.0
 11
-18.64082915974018
 21
0.5424788311452074
 31
0.0
  0
LINE
  5
13E
330
70
100
AcDbEntity
  8
cyl v2_Sketch1
100
AcDbLine
 10
-16.14182915974018
 20
0.8454788311452073
 30
0.0
 11
-16.14182915974018
 21
0.5424788311452074
 31
0.0
  0
LINE
  5
13F
330
70
100
AcDbEntity
  8
cyl v2_Sketch1
100
AcDbLine
 10
-19.47382915974018
 20
-5.257521168854793
 30
0.0
 11
-19.47382915974018
 21
-4.954521168854792
 31
0.0
  0
LINE
  5
140
330
70
100
AcDbEntity
  8
cyl v2_Sketch1
100
AcDbLine
 10
-20.30682915974018
 20
-5.257521168854793
 30
0.0
 11
-20.30682915974018
 21
-4.954521168854792
 31
0.0
  0
LINE
  5
141
330
70
100
AcDbEntity
  8
cyl v2_Sketch1
100
AcDbLine
 10
-26.97082915974019
 20
0.8454788311452073
 30
0.0
 11
-26.97082915974019
 21
0.9454788311452073
 31
0.0
  0
LINE
  5
142
330
70
100
AcDbEntity
  8
cyl v2_Sketch1
100
AcDbLine
 10
-9.909318740040376
 20
0.9454788311452073
 30
0.0
 11
-9.909318740040376
 21
0.8454788311452073
 31
0.0
  0
ARC
  5
143
330
70
100
AcDbEntity
  8
cyl v2_Sketch1
100
AcDbCircle
 10
0.0
 20
0.0
 30
0.0
 40
5.08
100
AcDbArc
 50
291.9512195121951
 51
296.1951034425204
  0
ARC
  5
144
330
70
100
AcDbEntity
  8
cyl v2_Sketch1
100
AcDbCircle
 10
0.0
 20
0.0
 30
0.0
 40
5.08
100
AcDbArc
 50
300.7317073170732
 51
304.9755912473985
  0
LINE
  5
145
330
70
100
AcDbEntity
  8
cyl v2_Sketch1
100
AcDbLine
 10
-10.31082915974018
 20
0.8454788311452073
 30
0.0
 11
-10.31082915974018
 21
0.5424788311452074
 31
0.0
  0
LINE
  5
146
330
70
100
AcDbEntity
  8
cyl v2_Sketch1
100
AcDbLine
 10
-21.13982915974019
 20
0.8454788311452073
 30
0.0
 11
-21.13982915974019
 21
0.5424788311452074
 31
0.0
  0
LINE
  5
147
330
70
100
AcDbEntity
  8
cyl v2_Sketch1
100
AcDbLine
 10
-11.14382915974018
 20
-5.257521168854793
 30
0.0
 11
-11.14382915974018
 21
-4.954521168854792
 31
0.0
  0
ARC
  5
148
330
70
100
AcDbEntity
  8
cyl v2_Sketch1
100
AcDbCircle
 10
0.0
 20
0.0
 30
0.0
 40
5.08
100
AcDbArc
 50
318.2926829268293
 51
322.5365668571547
  0
ARC
  5
149
330
70
100
AcDbEntity
  8
cyl v2_Sketch1
100
AcDbCircle
 10
0.0
 20
0.0
 30
0.0
 40
5.08
100
AcDbArc
 50
327.0731707317074
 51
331.3170546620326
  0
LINE
  5
14A
330
70
100
AcDbEntity
  8
cyl v2_Sketch1
100
AcDbLine
 10
-23.63882915974019
 20
0.8454788311452073
 30
0.0
 11
-23.63882915974019
 21
0.5424788311452074
 31
0.0
  0
ARC
  5
14B
330
70
100
AcDbEntity
  8
cyl v2_Sketch1
100
AcDbCircle
 10
0.0
 20
0.0
 30
0.0
 40
5.079999999999999
100
AcDbArc
 50
335.8536585365854
 51
340.0975424669108
  0
LINE
  5
14C
330
70
100
AcDbEntity
  8
cyl v2_Sketch1
100
AcDbLine
 10
-11.97682915974018
 20
-5.257521168854793
 30
0.0
 11
-11.97682915974018
 21
-4.954521168854792
 31
0.0
  0
LINE
  5
14D
330
70
100
AcDbEntity
  8
cyl v2_Sketch1
100
AcDbLine
 10
-13.64282915974018
 20
0.8454788311452073
 30
0.0
 11
-13.64282915974018
 21
0.5424788311452074
 31
0.0
  0
LINE
  5
14E
330
70
100
AcDbEntity
  8
cyl v2_Sketch1
100
AcDbLine
 10
-14.47582915974018
 20
-5.257521168854793
 30
0.0
 11
-14.47582915974018
 21
-4.954521168854792
 31
0.0
  0
LINE
  5
14F
330
70
100
AcDbEntity
  8
cyl v2_Sketch1
100
AcDbLine
 10
-9.908829159740182
 20
-5.257521168854793
 30
0.0
 11
-10.31082915974018
 21
-5.257521168854793
 31
0.0
  0
LINE
  5
150
330
70
100
AcDbEntity
  8
cyl v2_Sketch1
100
AcDbLine
 10
-16.14182915974018
 20
-5.257521168854793
 30
0.0
 11
-16.14182915974018
 21
-4.954521168854792
 31
0.0
  0
LINE
  5
151
330
70
100
AcDbEntity
  8
cyl v2_Sketch1
100
AcDbLine
 10
-21.97282915974019
 20
-5.257521168854793
 30
0.0
 11
-21.97282915974019
 21
-4.954521168854792
 31
0.0
  0
LINE
  5
152
330
70
100
AcDbEntity
  8
cyl v2_Sketch1
100
AcDbLine
 10
-9.909318740040376
 20
-5.257521168854793
 30
0.0
 11
-9.909318740040376
 21
-5.404521168854793
 31
0.0
  0
LINE
  5
153
330
70
100
AcDbEntity
  8
cyl v2_Sketch1
100
AcDbLine
 10
-23.63882915974019
 20
-5.257521168854793
 30
0.0
 11
-23.63882915974019
 21
-4.954521168854792
 31
0.0
  0
LINE
  5
154
330
70
100
AcDbEntity
  8
cyl v2_Sketch1
100
AcDbLine
 10
-26.13782915974019
 20
-5.257521168854793
 30
0.0
 11
-26.13782915974019
 21
-4.954521168854792
 31
0.0
  0
LINE
  5
155
330
70
100
AcDbEntity
  8
cyl v2_Sketch1
100
AcDbLine
 10
-9.909318740040376
 20
0.5424788311452074
 30
0.0
 11
-9.909318740040376
 21
-4.954521168854792
 31
0.0
  0
LINE
  5
156
330
70
100
AcDbEntity
  8
cyl v2_Sketch1
100
AcDbLine
 10
-24.47182915974019
 20
0.8454788311452073
 30
0.0
 11
-24.47182915974019
 21
0.5424788311452074
 31
0.0
  0
LINE
  5
157
330
70
100
AcDbEntity
  8
cyl v2_Sketch1
100
AcDbLine
 10
-13.64282915974018
 20
-5.257521168854793
 30
0.0
 11
-13.64282915974018
 21
-4.954521168854792
 31
0.0
  0
LINE
  5
158
330
70
100
AcDbEntity
  8
cyl v2_Sketch1
100
AcDbLine
 10
-26.97082915974019
 20
-4.954521168854792
 30
0.0
 11
-26.97082915974019
 21
0.5424788311452069
 31
0.0
  0
ARC
  5
159
330
70
100
AcDbEntity
  8
cyl v2_Sketch1
100
AcDbCircle
 10
0.0
 20
0.0
 30
0.0
 40
5.08
100
AcDbArc
 50
274.390243902439
 51
278.6341278327644
  0
ARC
  5
15A
330
70
100
AcDbEntity
  8
cyl v2_Sketch1
100
AcDbCircle
 10
0.0
 20
0.0
 30
0.0
 40
5.079999999999999
100
AcDbArc
 50
344.6341463414634
 51
348.8780302717888
  0
ARC
  5
15B
330
70
100
AcDbEntity
  8
cyl v2_Sketch1
100
AcDbCircle
 10
0.0
 20
0.0
 30
0.0
 40
5.08
100
AcDbArc
 50
353.4146341463415
 51
357.6585180766669
  0
LINE
  5
15C
330
70
100
AcDbEntity
  8
cyl v2_Sketch1
100
AcDbLine
 10
-14.47582915974018
 20
0.8454788311452073
 30
0.0
 11
-14.47582915974018
 21
0.5424788311452074
 31
0.0
  0
ARC
  5
15D
330
70
100
AcDbEntity
  8
cyl v2_Sketch1
100
AcDbCircle
 10
0.0
 20
0.0
 30
0.0
 40
5.08
100
AcDbArc
 50
309.5121951219512
 51
313.7560790522766
  0
LINE
  5
15E
330
70
100
AcDbEntity
  8
cyl v2_Sketch1
100
AcDbLine
 10
-12.80982915974018
 20
-5.257521168854793
 30
0.0
 11
-12.80982915974018
 21
-4.954521168854792
 31
0.0
  0
LINE
  5
15F
330
70
100
AcDbEntity
  8
cyl v2_Sketch1
100
AcDbLine
 10
-26.97082915974019
 20
-5.404521168854793
 30
0.0
 11
-26.97082915974019
 21
-5.257521168854793
 31
0.0
  0
LINE
  5
160
330
70
100
AcDbEntity
  8
cyl v2_Sketch1
100
AcDbLine
 10
-19.47382915974018
 20
0.8454788311452073
 30
0.0
 11
-19.47382915974018
 21
0.5424788311452074
 31
0.0
  0
ARC
  5
161
330
70
100
AcDbEntity
  8
cyl v2_Sketch1
100
AcDbCircle
 10
0.0
 20
0.0
 30
0.0
 40
5.079999999999999
100
AcDbArc
 50
283.1707317073171
 51
287.4146156376424
  0
LINE
  5
162
330
70
100
AcDbEntity
  8
cyl v2_Sketch1
100
AcDbLine
 10
-16.97482915974018
 20
0.8454788311452073
 30
0.0
 11
-16.97482915974018
 21
0.5424788311452074
 31
0.0
  0
ARC
  5
163
330
70
100
AcDbEntity
  8
cyl v2_Sketch1
100
AcDbCircle
 10
0.0
 20
0.0
 30
0.0
 40
5.079999999999999
100
AcDbArc
 50
2.195121951219511
 51
6.43900588154489
  0
ARC
  5
164
330
70
100
AcDbEntity
  8
cyl v2_Sketch1
100
AcDbCircle
 10
0.0
 20
0.0
 30
0.0
 40
5.079999999999999
100
AcDbArc
 50
10.97560975609758
 51
15.21949368642296
  0
ARC
  5
165
330
70
100
AcDbEntity
  8
cyl v2_Sketch1
100
AcDbCircle
 10
0.0
 20
0.0
 30
0.0
 40
5.079999999999999
100
AcDbArc
 50
19.75609756097565
 51
23.99998149130095
  0
ARC
  5
166
330
70
100
AcDbEntity
  8
cyl v2_Sketch1
100
AcDbCircle
 10
0.0
 20
0.0
 30
0.0
 40
5.08
100
AcDbArc
 50
28.53658536585366
 51
32.78046929617921
  0
ARC
  5
167
330
70
100
AcDbEntity
  8
cyl v2_Sketch1
100
AcDbCircle
 10
0.0
 20
0.0
 30
0.0
 40
5.08
100
AcDbArc
 50
37.31707317073173
 51
41.56095710105701
  0
ARC
  5
168
330
70
100
AcDbEntity
  8
cyl v2_Sketch1
100
AcDbCircle
 10
0.0
 20
0.0
 30
0.0
 40
5.08
100
AcDbArc
 50
46.09756097560976
 51
50.34144490593513
  0
LINE
  5
169
330
70
100
AcDbEntity
  8
cyl v2_Sketch1
100
AcDbLine
 10
-22.80582915974019
 20
0.8454788311452073
 30
0.0
 11
-22.80582915974019
 21
0.5424788311452074
 31
0.0
  0
LINE
  5
16A
330
70
100
AcDbEntity
  8
cyl v2_Sketch1
100
AcDbLine
 10
-17.80782915974018
 20
0.8454788311452073
 30
0.0
 11
-17.80782915974018
 21
0.5424788311452074
 31
0.0
  0
LINE
  5
16B
330
70
100
AcDbEntity
  8
cyl v2_Sketch1
100
AcDbLine
 10
-21.13982915974019
 20
-5.257521168854793
 30
0.0
 11
-21.13982915974019
 21
-4.954521168854792
 31
0.0
  0
LINE
  5
16C
330
70
100
AcDbEntity
  8
cyl v2_Sketch1
100
AcDbLine
 10
-17.80782915974018
 20
-5.257521168854793
 30
0.0
 11
-17.80782915974018
 21
-4.954521168854792
 31
0.0
  0
LINE
  5
16D
330
70
100
AcDbEntity
  8
cyl v2_Sketch1
100
AcDbLine
 10
-20.30682915974018
 20
0.8454788311452073
 30
0.0
 11
-20.30682915974018
 21
0.5424788311452074
 31
0.0
  0
LINE
  5
16E
330
70
100
AcDbEntity
  8
cyl v2_Sketch1
100
AcDbLine
 10
-25.30482915974019
 20
0.8454788311452073
 30
0.0
 11
-25.30482915974019
 21
0.5424788311452074
 31
0.0
  0
LINE
  5
16F
330
70
100
AcDbEntity
  8
cyl v2_Sketch1
100
AcDbLine
 10
-15.30882915974018
 20
0.8454788311452073
 30
0.0
 11
-15.30882915974018
 21
0.5424788311452074
 31
0.0
  0
LINE
  5
170
330
70
100
AcDbEntity
  8
cyl v2_Sketch1
100
AcDbLine
 10
-26.13782915974019
 20
0.8454788311452073
 30
0.0
 11
-26.13782915974019
 21
0.5424788311452074
 31
0.0
  0
LINE
  5
171
330
70
100
AcDbEntity
  8
cyl v2_Sketch1
100
AcDbLine
 10
-12.80982915974018
 20
0.8454788311452073
 30
0.0
 11
-12.80982915974018
 21
0.5424788311452074
 31
0.0
  0
LINE
  5
172
330
70
100
AcDbEntity
  8
cyl v2_Sketch1
100
AcDbLine
 10
-11.14382915974018
 20
0.8454788311452073
 30
0.0
 11
-11.14382915974018
 21
0.5424788311452074
 31
0.0
  0
LINE
  5
173
330
70
100
AcDbEntity
  8
cyl v2_Sketch1
100
AcDbLine
 10
-10.31082915974018
 20
-5.257521168854793
 30
0.0
 11
-10.31082915974018
 21
-4.954521168854792
 31
0.0
  0
LINE
  5
174
330
70
100
AcDbEntity
  8
cyl v2_Sketch1
100
AcDbLine
 10
-15.30882915974018
 20
-5.257521168854793
 30
0.0
 11
-15.30882915974018
 21
-4.954521168854792
 31
0.0
  0
LINE
  5
175
330
70
100
AcDbEntity
  8
cyl v2_Sketch1
100
AcDbLine
 10
-16.97482915974018
 20
-5.257521168854793
 30
0.0
 11
-16.97482915974018
 21
-4.954521168854792
 31
0.0
  0
LINE
  5
176
330
70
100
AcDbEntity
  8
cyl v2_Sketch1
100
AcDbLine
 10
-10.31082915974018
 20
-4.954521168854792
 30
0.0
 11
-9.908829159740182
 21
-4.954521168854792
 31
0.0
  0
LINE
  5
177
330
70
100
AcDbEntity
  8
cyl v2_Sketch1
100
AcDbLine
 10
-22.80582915974019
 20
-5.257521168854793
 30
0.0
 11
-22.80582915974019
 21
-4.954521168854792
 31
0.0
  0
LINE
  5
178
330
70
100
AcDbEntity
  8
cyl v2_Sketch1
100
AcDbLine
 10
-24.47182915974019
 20
-5.257521168854793
 30
0.0
 11
-24.47182915974019
 21
-4.954521168854792
 31
0.0
  0
LINE
  5
179
330
70
100
AcDbEntity
  8
cyl v2_Sketch1
100
AcDbLine
 10
-25.30482915974019
 20
-5.257521168854793
 30
0.0
 11
-25.30482915974019
 21
-4.954521168854792
 31
0.0
  0
LINE
  5
17A
330
70
100
AcDbEntity
  8
cyl v2_Sketch1
100
AcDbLine
 10
-11.97682915974018
 20
0.8454788311452073
 30
0.0
 11
-11.97682915974018
 21
0.5424788311452074
 31
0.0
  0
LINE
  5
17B
330
70
100
AcDbEntity
  8
cyl v2_Sketch1
100
AcDbLine
 10
-18.64082915974018
 20
-5.257521168854793
 30
0.0
 11
-18.64082915974018
 21
-4.954521168854792
 31
0.0
  0
ARC
  5
17C
330
70
100
AcDbEntity
  8
cyl v2_Sketch1
100
AcDbCircle
 10
0.0
 20
0.0
 30
0.0
 40
5.08
100
AcDbArc
 50
81.21951219512196
 51
85.46339612544725
  0
ARC
  5
17D
330
70
100
AcDbEntity
  8
cyl v2_Sketch1
100
AcDbCircle
 10
0.0
 20
0.0
 30
0.0
 40
5.08
100
AcDbArc
 50
54.87804878048782
 51
59.12193271081319
  0
ARC
  5
17E
330
70
100
AcDbEntity
  8
cyl v2_Sketch1
100
AcDbCircle
 10
0.0
 20
0.0
 30
0.0
 40
5.08
100
AcDbArc
 50
72.4390243902439
 51
76.68290832056928
  0
ARC
  5
17F
330
70
100
AcDbEntity
  8
cyl v2_Sketch1
100
AcDbCircle
 10
0.0
 20
0.0
 30
0.0
 40
5.08
100
AcDbArc
 50
63.65853658536588
 51
67.90242051569116
  0
ENDSEC
  0
SECTION
  2
OBJECTS
  0
DICTIONARY
  5
C
330
0
100
AcDbDictionary
281
     1
  3
ACAD_COLOR
350
63
  3
ACAD_DETAILVIEWSTYLE
350
6A
  3
ACAD_GROUP
350
D
  3
ACAD_LAYOUT
350
62
  3
ACAD_MATERIAL
350
10
  3
ACAD_MLEADERSTYLE
350
66
  3
ACAD_MLINESTYLE
350
5F
  3
ACAD_PLOTSETTINGS
350
61
  3
ACAD_PLOTSTYLENAME
350
E
  3
ACAD_SCALELIST
350
42
  3
ACAD_SECTIONVIEWSTYLE
350
68
  3
ACAD_TABLESTYLE
350
64
  3
ACAD_VISUALSTYLE
350
29
  3
ACDB_RECOMPOSE_DATA
350
188
  3
AcDbVariableDictionary
350
180
  0
DICTIONARY
  5
63
102
{ACAD_REACTORS
330
C
102
}
330
C
100
AcDbDictionary
281
     1
  0
DICTIONARY
  5
6A
102
{ACAD_REACTORS
330
C
102
}
330
C
100
AcDbDictionary
281
     1
  3
Imperial24
350
6B
  0
DICTIONARY
  5
D
102
{ACAD_REACTORS
330
C
102
}
330
C
100
AcDbDictionary
281
     1
  0
DICTIONARY
  5
62
102
{ACAD_REACTORS
330
C
102
}
330
C
100
AcDbDictionary
281
     1
  3
Layout1
350
6F
  3
Layout2
350
77
  3
Model
350
73
  0
DICTIONARY
  5
10
102
{ACAD_REACTORS
330
C
102
}
330
C
100
AcDbDictionary
281
     1
  3
ByBlock
350
19
  3
ByLayer
350
11
  3
Global
350
21
  0
DICTIONARY
  5
66
102
{ACAD_REACTORS
330
C
102
}
330
C
100
AcDbDictionary
281
     1
  3
Standard
350
67
  0
DICTIONARY
  5
5F
102
{ACAD_REACTORS
330
C
102
}
330
C
100
AcDbDictionary
281
     1
  3
Standard
350
60
  0
DICTIONARY
  5
61
102
{ACAD_REACTORS
330
C
102
}
330
C
100
AcDbDictionary
281
     1
  0
ACDBDICTIONARYWDFLT
  5
E
102
{ACAD_REACTORS
330
C
102
}
330
C
100
AcDbDictionary
281
     1
  3
Normal
350
F
100
AcDbDictionaryWithDefault
340
F
  0
DICTIONARY
  5
42
102
{ACAD_REACTORS
330
C
102
}
330
C
100
AcDbDictionary
281
     1
  3
A0
350
43
  3
A1
350
44
  3
A2
350
45
  3
A3
350
46
  3
A4
350
47
  3
A5
350
48
  3
A6
350
49
  3
A7
350
4A
  3
A8
350
4B
  3
A9
350
4C
  3
B0
350
4D
  3
B1
350
4E
  3
B2
350
4F
  3
B3
350
50
  3
B4
350
51
  3
B5
350
52
  3
B6
350
53
  0
DICTIONARY
  5
68
102
{ACAD_REACTORS
330
C
102
}
330
C
100
AcDbDictionary
281
     1
  3
Imperial24
350
69
  0
DICTIONARY
  5
64
102
{ACAD_REACTORS
330
C
102
}
330
C
100
AcDbDictionary
281
     1
  3
Standard
350
65
  0
DICTIONARY
  5
29
102
{ACAD_REACTORS
330
C
102
}
330
C
100
AcDbDictionary
281
     1
  3
2dWireframe
350
2F
  3
Basic
350
2E
  3
Brighten
350
35
  3
ColorChange
350
39
  3
Conceptual
350
32
  3
Dim
350
34
  3
EdgeColorOff
350
41
  3
Facepattern
350
38
  3
Flat
350
2A
  3
FlatWithEdges
350
2B
  3
Gouraud
350
2C
  3
GouraudWithEdges
350
2D
  3
Hidden
350
31
  3
JitterOff
350
3F
  3
Linepattern
350
37
  3
OverhangOff
350
40
  3
Realistic
350
33
  3
Shaded
350
3E
  3
Shaded with edges
350
3D
  3
Shades of Gray
350
3A
  3
Sketchy
350
3B
  3
Thicken
350
36
  3
Wireframe
350
30
  3
X-Ray
350
3C
  0
XRECORD
  5
188
102
{ACAD_REACTORS
330
C
102
}
330
C
100
AcDbXrecord
280
     1
 90
        1
330
65
  0
DICTIONARY
  5
180
102
{ACAD_REACTORS
330
C
102
}
330
C
100
AcDbDictionary
281
     1
  3
CANNOSCALE
350
185
  3
CMLEADERSTYLE
350
182
  3
CTABLESTYLE
350
181
  3
CVIEWDETAILSTYLE
350
183
  3
CVIEWSECTIONSTYLE
350
184
  0
ACDBDETAILVIEWSTYLE
  5
6B
102
{ACAD_XDICTIONARY
360
18B
102
}
102
{ACAD_REACTORS
330
6A
102
}
330
6A
100
AcDbModelDocViewStyle
 70
     0
  3
Imperial24
290
     0
100
AcDbDetailViewStyle
 70
     0
 71
     0
 90
        3
 71
     1
340
55
 62
   256
 40
0.24
340
0
 62
   256
 40
0.24
300

 40
0.36
280
     3
 71
     2
340
5D
 90
       25
 62
   256
 71
     3
340
55
 62
   256
 40
0.24
 90
        1
 40
0.75
 90
        1
300
%<\AcVar ViewType \f "%tc1">% %<\AcVar ViewDetailId>%\PSCALE %<\AcVar ViewScale \f "%sn">%
 71
     4
340
5D
 90
       25
 62
   256
340
5D
 90
       25
 62
   256
280
     0
  0
LAYOUT
  5
6F
102
{ACAD_REACTORS
330
62
102
}
330
62
100
AcDbPlotSettings
  1

  2

  4

  6

 40
0.0
 41
0.0
 42
0.0
 43
0.0
 44
0.0
 45
0.0
 46
0.0
 47
0.0
 48
0.0
 49
0.0
140
0.0
141
0.0
142
1.0
143
1.0
 70
   688
 72
     0
 73
     0
 74
     5
  7

 75
    16
147
1.0
 76
     0
 77
     2
 78
   300
148
0.0
149
0.0
100
AcDbLayout
  1
Layout1
 70
     1
 71
     1
 10
0.0
 20
0.0
 11
12.0
 21
9.0
 12
0.0
 22
0.0
 32
0.0
 14
0.0
 24
0.0
 34
0.0
 15
0.0
 25
0.0
 35
0.0
146
0.0
 13
0.0
 23
0.0
 33
0.0
 16
1.0
 26
0.0
 36
0.0
 17
0.0
 27
1.0
 37
0.0
 76
     0
330
6C
  0
LAYOUT
  5
77
102
{ACAD_REACTORS
330
62
102
}
330
62
100
AcDbPlotSettings
  1

  2

  4

  6

 40
0.0
 41
0.0
 42
0.0
 43
0.0
 44
0.0
 45
0.0
 46
0.0
 47
0.0
 48
0.0
 49
0.0
140
0.0
141
0.0
142
1.0
143
1.0
 70
   688
 72
     0
 73
     0
 74
     5
  7

 75
    16
147
1.0
 76
     0
 77
     2
 78
   300
148
0.0
149
0.0
100
AcDbLayout
  1
Layout2
 70
     1
 71
     2
 10
0.0
 20
0.0
 11
12.0
 21
9.0
 12
0.0
 22
0.0
 32
0.0
 14
0.0
 24
0.0
 34
0.0
 15
0.0
 25
0.0
 35
0.0
146
0.0
 13
0.0
 23
0.0
 33
0.0
 16
1.0
 26
0.0
 36
0.0
 17
0.0
 27
1.0
 37
0.0
 76
     0
330
74
  0
LAYOUT
  5
73
102
{ACAD_REACTORS
330
62
102
}
330
62
100
AcDbPlotSettings
  1

  2

  4

  6

 40
0.0
 41
0.0
 42
0.0
 43
0.0
 44
0.0
 45
0.0
 46
0.0
 47
0.0
 48
0.0
 49
0.0
140
0.0
141
0.0
142
1.0
143
1.0
 70
  1712
 72
     0
 73
     0
 74
     0
  7

 75
     0
147
1.0
 76
     0
 77
     2
 78
   300
148
0.0
149
0.0
100
AcDbLayout
  1
Model
 70
     1
 71
     0
 10
0.0
 20
0.0
 11
12.0
 21
9.0
 12
0.0
 22
0.0
 32
0.0
 14
0.0
 24
0.0
 34
0.0
 15
0.0
 25
0.0
 35
0.0
146
0.0
 13
0.0
 23
0.0
 33
0.0
 16
1.0
 26
0.0
 36
0.0
 17
0.0
 27
1.0
 37
0.0
 76
     0
330
70
  0
MATERIAL
  5
19
102
{ACAD_XDICTIONARY
360
1A
102
}
102
{ACAD_REACTORS
330
10
102
}
330
10
100
AcDbMaterial
  1
ByBlock
 72
     0
 43
0.0208333333333333
 43
0.0
 43
0.0
 43
0.0
 43
0.0
 43
0.0208333333333333
 43
0.0
 43
0.0
 43
0.0
 43
0.0
 43
1.0
 43
0.0
 43
0.0
 43
0.0
 43
0.0
 43
1.0
 77
     0
 47
0.0208333333333333
 47
0.0
 47
0.0
 47
0.0
 47
0.0
 47
0.0208333333333333
 47
0.0
 47
0.0
 47
0.0
 47
0.0
 47
1.0
 47
0.0
 47
0.0
 47
0.0
 47
0.0
 47
1.0
171
     0
 49
0.0208333333333333
 49
0.0
 49
0.0
 49
0.0
 49
0.0
 49
0.0208333333333333
 49
0.0
 49
0.0
 49
0.0
 49
0.0
 49
1.0
 49
0.0
 49
0.0
 49
0.0
 49
0.0
 49
1.0
175
     0
142
0.0208333333333333
142
0.0
142
0.0
142
0.0
142
0.0
142
0.0208333333333333
142
0.0
142
0.0
142
0.0
142
0.0
142
1.0
142
0.0
142
0.0
142
0.0
142
0.0
142
1.0
179
     0
144
0.0208333333333333
144
0.0
144
0.0
144
0.0
144
0.0
144
0.0208333333333333
144
0.0
144
0.0
144
0.0
144
0.0
144
1.0
144
0.0
144
0.0
144
0.0
144
0.0
144
1.0
147
0.0208333333333333
147
0.0
147
0.0
147
0.0
147
0.0
147
0.0208333333333333
147
0.0
147
0.0
147
0.0
147
0.0
147
1.0
147
0.0
147
0.0
147
0.0
147
0.0
147
1.0
  0
MATERIAL
  5
11
102
{ACAD_XDICTIONARY
360
12
102
}
102
{ACAD_REACTORS
330
10
102
}
330
10
100
AcDbMaterial
  1
ByLayer
 72
     0
 43
0.0208333333333333
 43
0.0
 43
0.0
 43
0.0
 43
0.0
 43
0.0208333333333333
 43
0.0
 43
0.0
 43
0.0
 43
0.0
 43
1.0
 43
0.0
 43
0.0
 43
0.0
 43
0.0
 43
1.0
 77
     0
 47
0.0208333333333333
 47
0.0
 47
0.0
 47
0.0
 47
0.0
 47
0.0208333333333333
 47
0.0
 47
0.0
 47
0.0
 47
0.0
 47
1.0
 47
0.0
 47
0.0
 47
0.0
 47
0.0
 47
1.0
171
     0
 49
0.0208333333333333
 49
0.0
 49
0.0
 49
0.0
 49
0.0
 49
0.0208333333333333
 49
0.0
 49
0.0
 49
0.0
 49
0.0
 49
1.0
 49
0.0
 49
0.0
 49
0.0
 49
0.0
 49
1.0
175
     0
142
0.0208333333333333
142
0.0
142
0.0
142
0.0
142
0.0
142
0.0208333333333333
142
0.0
142
0.0
142
0.0
142
0.0
142
1.0
142
0.0
142
0.0
142
0.0
142
0.0
142
1.0
179
     0
144
0.0208333333333333
144
0.0
144
0.0
144
0.0
144
0.0
144
0.0208333333333333
144
0.0
144
0.0
144
0.0
144
0.0
144
1.0
144
0.0
144
0.0
144
0.0
144
0.0
144
1.0
147
0.0208333333333333
147
0.0
147
0.0
147
0.0
147
0.0
147
0.0208333333333333
147
0.0
147
0.0
147
0.0
147
0.0
147
1.0
147
0.0
147
0.0
147
0.0
147
0.0
147
1.0
  0
MATERIAL
  5
21
102
{ACAD_XDICTIONARY
360
22
102
}
102
{ACAD_REACTORS
330
10
102
}
330
10
100
AcDbMaterial
  1
Global
 72
     0
 43
0.0208333333333333
 43
0.0
 43
0.0
 43
0.0
 43
0.0
 43
0.0208333333333333
 43
0.0
 43
0.0
 43
0.0
 43
0.0
 43
1.0
 43
0.0
 43
0.0
 43
0.0
 43
0.0
 43
1.0
 77
     0
 47
0.0208333333333333
 47
0.0
 47
0.0
 47
0.0
 47
0.0
 47
0.0208333333333333
 47
0.0
 47
0.0
 47
0.0
 47
0.0
 47
1.0
 47
0.0
 47
0.0
 47
0.0
 47
0.0
 47
1.0
171
     0
 49
0.0208333333333333
 49
0.0
 49
0.0
 49
0.0
 49
0.0
 49
0.0208333333333333
 49
0.0
 49
0.0
 49
0.0
 49
0.0
 49
1.0
 49
0.0
 49
0.0
 49
0.0
 49
0.0
 49
1.0
175
     0
142
0.0208333333333333
142
0.0
142
0.0
142
0.0
142
0.0
142
0.0208333333333333
142
0.0
142
0.0
142
0.0
142
0.0
142
1.0
142
0.0
142
0.0
142
0.0
142
0.0
142
1.0
179
     0
144
0.0208333333333333
144
0.0
144
0.0
144
0.0
144
0.0
144
0.0208333333333333
144
0.0
144
0.0
144
0.0
144
0.0
144
1.0
144
0.0
144
0.0
144
0.0
144
0.0
144
1.0
147
0.0208333333333333
147
0.0
147
0.0
147
0.0
147
0.0
147
0.0208333333333333
147
0.0
147
0.0
147
0.0
147
0.0
147
1.0
147
0.0
147
0.0
147
0.0
147
0.0
147
1.0
  0
MLEADERSTYLE
  5
67
102
{ACAD_REACTORS
330
66
102
}
330
66
100
AcDbMLeaderStyle
179
     2
170
     2
171
     1
172
     0
 90
        2
 40
0.0
 41
0.0
173
     1
 91
-1056964608
340
5B
 92
       -2
290
     1
 42
0.09
291
     1
 43
0.36
  3
Standard
 44
0.18
300

342
55
174
     1
178
     6
175
     1
176
     0
 93
-1056964608
 45
0.18
292
     0
297
     0
 46
0.18
 94
-1056964608
 47
1.0
 49
1.0
140
1.0
293
     1
141
0.0
294
     1
177
     0
142
1.0
295
     0
296
     0
143
0.125
271
     0
272
     9
273
     9
298
     1
  0
MLINESTYLE
  5
60
102
{ACAD_REACTORS
330
5F
102
}
330
5F
100
AcDbMlineStyle
  2
STANDARD
 70
     0
  3

 62
   256
 51
90.0
 52
90.0
 71
     2
 49
0.5
 62
   256
  6
BYLAYER
 49
-0.5
 62
   256
  6
BYLAYER
  0
ACDBPLACEHOLDER
  5
F
102
{ACAD_REACTORS
330
E
102
}
330
E
  0
SCALE
  5
43
102
{ACAD_REACTORS
330
42
102
}
330
42
100
AcDbScale
 70
     0
300
1:1
140
1.0
141
1.0
290
     1
  0
SCALE
  5
44
102
{ACAD_REACTORS
330
42
102
}
330
42
100
AcDbScale
 70
     0
300
1/128" = 1'-0"
140
0.0078125
141
12.0
290
     0
  0
SCALE
  5
45
102
{ACAD_REACTORS
330
42
102
}
330
42
100
AcDbScale
 70
     0
300
1/64" = 1'-0"
140
0.015625
141
12.0
290
     0
  0
SCALE
  5
46
102
{ACAD_REACTORS
330
42
102
}
330
42
100
AcDbScale
 70
     0
300
1/32" = 1'-0"
140
0.03125
141
12.0
290
     0
  0
SCALE
  5
47
102
{ACAD_REACTORS
330
42
102
}
330
42
100
AcDbScale
 70
     0
300
1/16" = 1'-0"
140
0.0625
141
12.0
290
     0
  0
SCALE
  5
48
102
{ACAD_REACTORS
330
42
102
}
330
42
100
AcDbScale
 70
     0
300
3/32" = 1'-0"
140
0.09375
141
12.0
290
     0
  0
SCALE
  5
49
102
{ACAD_REACTORS
330
42
102
}
330
42
100
AcDbScale
 70
     0
300
1/8" = 1'-0"
140
0.125
141
12.0
290
     0
  0
SCALE
  5
4A
102
{ACAD_REACTORS
330
42
102
}
330
42
100
AcDbScale
 70
     0
300
3/16" = 1'-0"
140
0.1875
141
12.0
290
     0
  0
SCALE
  5
4B
102
{ACAD_REACTORS
330
42
102
}
330
42
100
AcDbScale
 70
     0
300
1/4" = 1'-0"
140
0.25
141
12.0
290
     0
  0
SCALE
  5
4C
102
{ACAD_REACTORS
330
42
102
}
330
42
100
AcDbScale
 70
     0
300
3/8" = 1'-0"
140
0.375
141
12.0
290
     0
  0
SCALE
  5
4D
102
{ACAD_REACTORS
330
42
102
}
330
42
100
AcDbScale
 70
     0
300
1/2" = 1'-0"
140
0.5
141
12.0
290
     0
  0
SCALE
  5
4E
102
{ACAD_REACTORS
330
42
102
}
330
42
100
AcDbScale
 70
     0
300
3/4" = 1'-0"
140
0.75
141
12.0
290
     0
  0
SCALE
  5
4F
102
{ACAD_REACTORS
330
42
102
}
330
42
100
AcDbScale
 70
     0
300
1" = 1'-0"
140
1.0
141
12.0
290
     0
  0
SCALE
  5
50
102
{ACAD_REACTORS
330
42
102
}
330
42
100
AcDbScale
 70
     0
300
1-1/2" = 1'-0"
140
1.5
141
12.0
290
     0
  0
SCALE
  5
51
102
{ACAD_REACTORS
330
42
102
}
330
42
100
AcDbScale
 70
     0
300
3" = 1'-0"
140
3.0
141
12.0
290
     0
  0
SCALE
  5
52
102
{ACAD_REACTORS
330
42
102
}
330
42
100
AcDbScale
 70
     0
300
6" = 1'-0"
140
6.0
141
12.0
290
     0
  0
SCALE
  5
53
102
{ACAD_REACTORS
330
42
102
}
330
42
100
AcDbScale
 70
     0
300
1'-0" = 1'-0"
140
12.0
141
12.0
290
     0
  0
ACDBSECTIONVIEWSTYLE
  5
69
102
{ACAD_XDICTIONARY
360
189
102
}
102
{ACAD_REACTORS
330
68
102
}
330
68
100
AcDbModelDocViewStyle
 70
     0
  3
Imperial24
290
     0
100
AcDbSectionViewStyle
 70
     0
 71
     0
 90
       78
 71
     1
340
55
 62
   256
 40
0.24
340
0
340
0
 62
   256
 40
0.24
300
I, O, Q, S, X, Z
 40
0.48
 90
        3
 40
0.18
 90
        1
 71
     2
340
5D
 90
       25
 62
   256
340
5D
 90
       50
 62
   256
 40
0.24
 40
0.0
 40
0.24
 71
     3
340
55
 62
   256
 40
0.24
 90
        1
 40
0.75
 90
        1
300
%<\AcVar ViewType \f "%tc1">% %<\AcVar ViewSectionStartId>%-%<\AcVar ViewSectionEndId>%\PSCALE %<\AcVar ViewScale \f "%sn">%
 71
     4
 62
   256
 62
   257
300
ANSI31
 40
1.0
 90
        0
290
     0
290
     0
 90
        6
 40
0.0
 40
1.570796326794896
 40
0.2617993877991494
 40
1.308996938995747
 40
-0.2617993877991494
 40
1.832595714594046
  0
TABLESTYLE
  5
65
102
{ACAD_XDICTIONARY
360
186
102
}
102
{ACAD_REACTORS
330
64
102
}
330
64
100
AcDbTableStyle
280
     0
  3
Standard
 70
     0
 71
     0
 40
0.06
 41
0.06
280
     0
281
     0
  7
Standard
140
0.18
170
     2
 62
     0
 63
     7
283
     0
 90
      512
 91
        0
  1

274
    -2
284
     1
 64
     0
275
    -2
285
     1
 65
     0
276
    -2
286
     1
 66
     0
277
    -2
287
     1
 67
     0
278
    -2
288
     1
 68
     0
279
    -2
289
     1
 69
     0
  7
Standard
140
0.25
170
     5
 62
     0
 63
     7
283
     0
 90
      512
 91
        0
  1

274
    -2
284
     1
 64
     0
275
    -2
285
     1
 65
     0
276
    -2
286
     1
 66
     0
277
    -2
287
     1
 67
     0
278
    -2
288
     1
 68
     0
279
    -2
289
     1
 69
     0
  7
Standard
140
0.18
170
     5
 62
     0
 63
     7
283
     0
 90
      512
 91
        0
  1

274
    -2
284
     1
 64
     0
275
    -2
285
     1
 65
     0
276
    -2
286
     1
 66
     0
277
    -2
287
     1
 67
     0
278
    -2
288
     1
 68
     0
279
    -2
289
     1
 69
     0
  0
VISUALSTYLE
  5
2F
102
{ACAD_REACTORS
330
29
102
}
330
29
100
AcDbVisualStyle
  2
2dWireframe
 70
     4
177
     3
291
     0
 70
    58
 90
        0
176
     1
 90
        2
176
     1
 90
        0
176
     1
 90
        0
176
     1
 40
0.6
176
     1
 40
30.0
176
     1
 62
     7
420
 16777215
176
     1
 90
        1
176
     1
 90
        4
176
     1
 62
     7
176
     1
 62
   257
176
     1
 90
        1
176
     1
 90
        1
176
     1
 40
1.0
176
     1
 90
        0
176
     1
 62
   257
176
     1
 40
1.0
176
     1
 90
        1
176
     1
 90
        6
176
     1
 90
        2
176
     1
 62
     7
176
     1
 90
        5
176
     1
 90
        0
176
     1
 90
        0
176
     1
290
     0
176
     1
 90
        1
176
     1
 40
0.0
176
     1
 90
        0
176
     1
290
     1
176
     1
290
     1
176
     1
290
     0
176
     1
290
     0
176
     1
290
     0
176
     1
290
     0
176
     1
290
     0
176
     1
290
     0
176
     1
290
     0
176
     1
 90
       50
176
     1
 40
0.0
176
     1
 40
1.0
176
     1
 90
        0
176
     1
 62
    18
420
        0
176
     1
 90
       50
176
     1
 90
        3
176
     1
 62
     5
420
      255
176
     1
290
     0
176
     1
 90
       50
176
     1
 90
       50
176
     1
 90
       50
176
     1
290
     0
176
     1
 90
       50
176
     1
 62
   256
176
     0
 40
1.0
176
     0
 90
        2
176
     1
  1
strokes_ogs.tif
176
     1
290
     0
176
     1
 40
1.0
176
     1
 40
1.0
176
     1
1001
ACAD
1000
AcDbSavedByObjectVersion
1070
     0
  0
VISUALSTYLE
  5
2E
102
{ACAD_REACTORS
330
29
102
}
330
29
100
AcDbVisualStyle
  2
Basic
 70
     7
177
     3
291
     1
 70
    58
 90
        1
176
     1
 90
        0
176
     1
 90
        1
176
     1
 90
        0
176
     1
 40
0.6
176
     1
 40
30.0
176
     1
 62
     7
420
 16777215
176
     1
 90
        0
176
     1
 90
        4
176
     1
 62
     7
176
     1
 62
   257
176
     1
 90
        1
176
     1
 90
        1
176
     1
 40
1.0
176
     1
 90
        8
176
     1
 62
     7
176
     1
 40
1.0
176
     1
 90
        1
176
     1
 90
        6
176
     1
 90
        2
176
     1
 62
     7
176
     1
 90
        5
176
     1
 90
        0
176
     1
 90
        0
176
     1
290
     0
176
     1
 90
        1
176
     1
 40
0.0
176
     1
 90
        0
176
     1
290
     0
176
     1
290
     1
176
     1
290
     1
176
     1
290
     0
176
     1
290
     0
176
     1
290
     0
176
     1
290
     0
176
     1
290
     0
176
     1
290
     0
176
     1
 90
       50
176
     1
 40
0.0
176
     1
 40
1.0
176
     1
 90
        0
176
     1
 62
    18
420
        0
176
     1
 90
       50
176
     1
 90
        3
176
     1
 62
     5
420
      255
176
     1
290
     0
176
     1
 90
       50
176
     1
 90
       50
176
     1
 90
       50
176
     1
290
     0
176
     1
 90
       50
176
     1
 62
   256
176
     0
 40
1.0
176
     0
 90
        2
176
     1
  1
strokes_ogs.tif
176
     1
290
     0
176
     1
 40
1.0
176
     1
 40
1.0
176
     1
1001
ACAD
1000
AcDbSavedByObjectVersion
1070
     0
  0
VISUALSTYLE
  5
35
102
{ACAD_REACTORS
330
29
102
}
330
29
100
AcDbVisualStyle
  2
Brighten
 70
    12
177
     3
291
     1
 70
    58
 90
        2
176
     1
 90
        2
176
     1
 90
        0
176
     1
 90
        0
176
     1
 40
0.6
176
     1
 40
30.0
176
     1
 62
     7
420
 16777215
176
     1
 90
        1
176
     1
 90
        4
176
     1
 62
     7
176
     1
 62
   257
176
     1
 90
        1
176
     1
 90
        1
176
     1
 40
1.0
176
     1
 90
        8
176
     1
 62
     7
176
     1
 40
1.0
176
     1
 90
        1
176
     1
 90
        6
176
     1
 90
        2
176
     1
 62
     7
176
     1
 90
        5
176
     1
 90
        0
176
     1
 90
        0
176
     1
290
     0
176
     1
 90
        1
176
     1
 40
50.0
176
     1
 90
        0
176
     1
290
     0
176
     1
290
     1
176
     1
290
     1
176
     1
290
     0
176
     1
290
     0
176
     1
290
     0
176
     1
290
     0
176
     1
290
     0
176
     1
290
     0
176
     1
 90
       50
176
     1
 40
0.0
176
     1
 40
1.0
176
     1
 90
        0
176
     1
 62
    18
420
        0
176
     1
 90
       50
176
     1
 90
        3
176
     1
 62
     5
420
      255
176
     1
290
     0
176
     1
 90
       50
176
     1
 90
       50
176
     1
 90
       50
176
     1
290
     0
176
     1
 90
       50
176
     1
 62
   256
176
     0
 40
1.0
176
     0
 90
        2
176
     1
  1
strokes_ogs.tif
176
     1
290
     0
176
     1
 40
1.0
176
     1
 40
1.0
176
     1
1001
ACAD
1000
AcDbSavedByObjectVersion
1070
     0
  0
VISUALSTYLE
  5
39
102
{ACAD_REACTORS
330
29
102
}
330
29
100
AcDbVisualStyle
  2
ColorChange
 70
    16
177
     3
291
     1
 70
    58
 90
        2
176
     1
 90
        2
176
     1
 90
        3
176
     1
 90
        0
176
     1
 40
0.6
176
     1
 40
30.0
176
     1
 62
     8
420
  8421504
176
     1
 90
        1
176
     1
 90
        4
176
     1
 62
     7
176
     1
 62
   257
176
     1
 90
        1
176
     1
 90
        1
176
     1
 40
1.0
176
     1
 90
        8
176
     1
 62
     8
420
  8421504
176
     1
 40
1.0
176
     1
 90
        1
176
     1
 90
        6
176
     1
 90
        2
176
     1
 62
     7
176
     1
 90
        5
176
     1
 90
        0
176
     1
 90
        0
176
     1
290
     0
176
     1
 90
        1
176
     1
 40
0.0
176
     1
 90
        0
176
     1
290
     0
176
     1
290
     1
176
     1
290
     1
176
     1
290
     0
176
     1
290
     0
176
     1
290
     0
176
     1
290
     0
176
     1
290
     0
176
     1
290
     0
176
     1
 90
       50
176
     1
 40
0.0
176
     1
 40
1.0
176
     1
 90
        0
176
     1
 62
    18
420
        0
176
     1
 90
       50
176
     1
 90
        3
176
     1
 62
     5
420
      255
176
     1
290
     0
176
     1
 90
       50
176
     1
 90
       50
176
     1
 90
       50
176
     1
290
     0
176
     1
 90
       50
176
     1
 62
   256
176
     0
 40
1.0
176
     0
 90
        2
176
     1
  1
strokes_ogs.tif
176
     1
290
     0
176
     1
 40
1.0
176
     1
 40
1.0
176
     1
1001
ACAD
1000
AcDbSavedByObjectVersion
1070
     0
  0
VISUALSTYLE
  5
32
102
{ACAD_REACTORS
330
29
102
}
330
29
100
AcDbVisualStyle
  2
Conceptual
 70
     9
177
     3
291
     0
 70
    58
 90
        3
176
     1
 90
        2
176
     1
 90
        0
176
     1
 90
        0
176
     1
 40
0.6
176
     1
 40
30.0
176
     1
 62
     7
420
 16777215
176
     1
 90
        2
176
     1
 90
        2
176
     1
 62
     7
176
     1
 62
   257
176
     1
 90
        1
176
     1
 90
        1
176
     1
 40
179.0
176
     1
 90
        8
176
     1
 62
     7
176
     1
 40
1.0
176
     1
 90
        1
176
     1
 90
        6
176
     1
 90
        2
176
     1
 62
     7
176
     1
 90
        3
176
     1
 90
        0
176
     1
 90
        0
176
     1
290
     0
176
     1
 90
        1
176
     1
 40
0.0
176
     1
 90
        0
176
     1
290
     0
176
     1
290
     1
176
     1
290
     1
176
     1
290
     0
176
     1
290
     0
176
     1
290
     0
176
     1
290
     0
176
     1
290
     0
176
     1
290
     0
176
     1
 90
       50
176
     1
 40
0.0
176
     1
 40
1.0
176
     1
 90
        0
176
     1
 62
    18
420
        0
176
     1
 90
       50
176
     1
 90
        3
176
     1
 62
     5
420
      255
176
     1
290
     0
176
     1
 90
       50
176
     1
 90
       50
176
     1
 90
       50
176
     1
290
     0
176
     1
 90
       50
176
     1
 62
   256
176
     0
 40
1.0
176
     0
 90
        2
176
     1
  1
strokes_ogs.tif
176
     1
290
     0
176
     1
 40
1.0
176
     1
 40
1.0
176
     1
1001
ACAD
1000
AcDbSavedByObjectVersion
1070
     0
  0
VISUALSTYLE
  5
34
102
{ACAD_REACTORS
330
29
102
}
330
29
100
AcDbVisualStyle
  2
Dim
 70
    11
177
     3
291
     1
 70
    58
 90
        2
176
     1
 90
        2
176
     1
 90
        0
176
     1
 90
        0
176
     1
 40
0.6
176
     1
 40
30.0
176
     1
 62
     7
420
 16777215
176
     1
 90
        1
176
     1
 90
        4
176
     1
 62
     7
176
     1
 62
   257
176
     1
 90
        1
176
     1
 90
        1
176
     1
 40
1.0
176
     1
 90
        8
176
     1
 62
     7
176
     1
 40
1.0
176
     1
 90
        1
176
     1
 90
        6
176
     1
 90
        2
176
     1
 62
     7
176
     1
 90
        5
176
     1
 90
        0
176
     1
 90
        0
176
     1
290
     0
176
     1
 90
        1
176
     1
 40
-50.0
176
     1
 90
        0
176
     1
290
     0
176
     1
290
     1
176
     1
290
     1
176
     1
290
     0
176
     1
290
     0
176
     1
290
     0
176
     1
290
     0
176
     1
290
     0
176
     1
290
     0
176
     1
 90
       50
176
     1
 40
0.0
176
     1
 40
1.0
176
     1
 90
        0
176
     1
 62
    18
420
        0
176
     1
 90
       50
176
     1
 90
        3
176
     1
 62
     5
420
      255
176
     1
290
     0
176
     1
 90
       50
176
     1
 90
       50
176
     1
 90
       50
176
     1
290
     0
176
     1
 90
       50
176
     1
 62
   256
176
     0
 40
1.0
176
     0
 90
        2
176
     1
  1
strokes_ogs.tif
176
     1
290
     0
176
     1
 40
1.0
176
     1
 40
1.0
176
     1
1001
ACAD
1000
AcDbSavedByObjectVersion
1070
     0
  0
VISUALSTYLE
  5
41
102
{ACAD_REACTORS
330
29
102
}
330
29
100
AcDbVisualStyle
  2
EdgeColorOff
 70
    22
177
     3
291
     1
 70
    58
 90
        2
176
     0
 90
        2
176
     0
 90
        0
176
     0
 90
        0
176
     0
 40
0.6
176
     0
 40
30.0
176
     0
 62
     7
420
 16777215
176
     0
 90
        1
176
     0
 90
        4
176
     0
 62
     7
176
     0
 62
   257
176
     0
 90
        1
176
     0
 90
        1
176
     0
 40
1.0
176
     0
 90
        8
176
     2
 62
     7
176
     0
 40
1.0
176
     0
 90
        1
176
     0
 90
        6
176
     0
 90
        2
176
     0
 62
     7
176
     0
 90
        5
176
     0
 90
        0
176
     0
 90
        0
176
     0
290
     0
176
     0
 90
        1
176
     0
 40
0.0
176
     0
 90
        0
176
     0
290
     0
176
     0
290
     1
176
     0
290
     1
176
     0
290
     0
176
     0
290
     0
176
     0
290
     0
176
     0
290
     0
176
     0
290
     0
176
     0
290
     0
176
     0
 90
       50
176
     0
 40
0.0
176
     0
 40
1.0
176
     0
 90
        0
176
     0
 62
    18
420
        0
176
     0
 90
       50
176
     0
 90
        3
176
     0
 62
     5
420
      255
176
     0
290
     0
176
     0
 90
       50
176
     0
 90
       50
176
     0
 90
       50
176
     0
290
     0
176
     0
 90
       50
176
     0
 62
   256
176
     0
 40
1.0
176
     0
 90
        2
176
     0
  1
strokes_ogs.tif
176
     0
290
     0
176
     0
 40
1.0
176
     0
 40
1.0
176
     0
1001
ACAD
1000
AcDbSavedByObjectVersion
1070
     0
  0
VISUALSTYLE
  5
38
102
{ACAD_REACTORS
330
29
102
}
330
29
100
AcDbVisualStyle
  2
Facepattern
 70
    15
177
     3
291
     1
 70
    58
 90
        2
176
     1
 90
        2
176
     1
 90
        0
176
     1
 90
        0
176
     1
 40
0.6
176
     1
 40
30.0
176
     1
 62
     7
420
 16777215
176
     1
 90
        1
176
     1
 90
        4
176
     1
 62
     7
176
     1
 62
   257
176
     1
 90
        1
176
     1
 90
        1
176
     1
 40
1.0
176
     1
 90
        8
176
     1
 62
     7
176
     1
 40
1.0
176
     1
 90
        1
176
     1
 90
        6
176
     1
 90
        2
176
     1
 62
     7
176
     1
 90
        5
176
     1
 90
        0
176
     1
 90
        0
176
     1
290
     0
176
     1
 90
        1
176
     1
 40
0.0
176
     1
 90
        0
176
     1
290
     0
176
     1
290
     1
176
     1
290
     1
176
     1
290
     0
176
     1
290
     0
176
     1
290
     0
176
     1
290
     0
176
     1
290
     0
176
     1
290
     0
176
     1
 90
       50
176
     1
 40
0.0
176
     1
 40
1.0
176
     1
 90
        0
176
     1
 62
    18
420
        0
176
     1
 90
       50
176
     1
 90
        3
176
     1
 62
     5
420
      255
176
     1
290
     0
176
     1
 90
       50
176
     1
 90
       50
176
     1
 90
       50
176
     1
290
     0
176
     1
 90
       50
176
     1
 62
   256
176
     0
 40
1.0
176
     0
 90
        2
176
     1
  1
strokes_ogs.tif
176
     1
290
     0
176
     1
 40
1.0
176
     1
 40
1.0
176
     1
1001
ACAD
1000
AcDbSavedByObjectVersion
1070
     0
  0
VISUALSTYLE
  5
2A
102
{ACAD_REACTORS
330
29
102
}
330
29
100
AcDbVisualStyle
  2
Flat
 70
     0
177
     3
291
     1
 70
    58
 90
        2
176
     1
 90
        1
176
     1
 90
        1
176
     1
 90
        2
176
     1
 40
0.6
176
     1
 40
30.0
176
     1
 62
     7
420
 16777215
176
     1
 90
        0
176
     1
 90
        0
176
     1
 62
     7
176
     1
 62
   257
176
     1
 90
        1
176
     1
 90
        1
176
     1
 40
1.0
176
     1
 90
        8
176
     1
 62
     7
176
     1
 40
1.0
176
     1
 90
        1
176
     1
 90
        6
176
     1
 90
        2
176
     1
 62
     7
176
     1
 90
        5
176
     1
 90
        0
176
     1
 90
        0
176
     1
290
     0
176
     1
 90
       13
176
     1
 40
0.0
176
     1
 90
        0
176
     1
290
     0
176
     1
290
     1
176
     1
290
     1
176
     1
290
     0
176
     1
290
     0
176
     1
290
     0
176
     1
290
     0
176
     1
290
     0
176
     1
290
     0
176
     1
 90
       50
176
     1
 40
0.0
176
     1
 40
1.0
176
     1
 90
        0
176
     1
 62
    18
420
        0
176
     1
 90
       50
176
     1
 90
        3
176
     1
 62
     5
420
      255
176
     1
290
     0
176
     1
 90
       50
176
     1
 90
       50
176
     1
 90
       50
176
     1
290
     0
176
     1
 90
       50
176
     1
 62
   256
176
     0
 40
1.0
176
     0
 90
        2
176
     1
  1
strokes_ogs.tif
176
     1
290
     0
176
     1
 40
1.0
176
     1
 40
1.0
176
     1
1001
ACAD
1000
AcDbSavedByObjectVersion
1070
     0
  0
VISUALSTYLE
  5
2B
102
{ACAD_REACTORS
330
29
102
}
330
29
100
AcDbVisualStyle
  2
FlatWithEdges
 70
     1
177
     3
291
     1
 70
    58
 90
        2
176
     1
 90
        1
176
     1
 90
        1
176
     1
 90
        2
176
     1
 40
0.6
176
     1
 40
30.0
176
     1
 62
     7
420
 16777215
176
     1
 90
        1
176
     1
 90
        0
176
     1
 62
     7
176
     1
 62
   257
176
     1
 90
        1
176
     1
 90
        1
176
     1
 40
1.0
176
     1
 90
        0
176
     1
 62
   257
176
     1
 40
1.0
176
     1
 90
        1
176
     1
 90
        6
176
     1
 90
        2
176
     1
 62
     7
176
     1
 90
        5
176
     1
 90
        0
176
     1
 90
        0
176
     1
290
     0
176
     1
 90
       13
176
     1
 40
0.0
176
     1
 90
        0
176
     1
290
     0
176
     1
290
     1
176
     1
290
     1
176
     1
290
     0
176
     1
290
     0
176
     1
290
     0
176
     1
290
     0
176
     1
290
     0
176
     1
290
     0
176
     1
 90
       50
176
     1
 40
0.0
176
     1
 40
1.0
176
     1
 90
        0
176
     1
 62
    18
420
        0
176
     1
 90
       50
176
     1
 90
        3
176
     1
 62
     5
420
      255
176
     1
290
     0
176
     1
 90
       50
176
     1
 90
       50
176
     1
 90
       50
176
     1
290
     0
176
     1
 90
       50
176
     1
 62
   256
176
     0
 40
1.0
176
     0
 90
        2
176
     1
  1
strokes_ogs.tif
176
     1
290
     0
176
     1
 40
1.0
176
     1
 40
1.0
176
     1
1001
ACAD
1000
AcDbSavedByObjectVersion
1070
     0
  0
VISUALSTYLE
  5
2C
102
{ACAD_REACTORS
330
29
102
}
330
29
100
AcDbVisualStyle
  2
Gouraud
 70
     2
177
     3
291
     1
 70
    58
 90
        2
176
     1
 90
        2
176
     1
 90
        1
176
     1
 90
        2
176
     1
 40
0.6
176
     1
 40
30.0
176
     1
 62
     7
420
 16777215
176
     1
 90
        0
176
     1
 90
        0
176
     1
 62
     7
176
     1
 62
   257
176
     1
 90
        1
176
     1
 90
        1
176
     1
 40
1.0
176
     1
 90
        0
176
     1
 62
     7
176
     1
 40
1.0
176
     1
 90
        1
176
     1
 90
        6
176
     1
 90
        2
176
     1
 62
     7
176
     1
 90
        5
176
     1
 90
        0
176
     1
 90
        0
176
     1
290
     0
176
     1
 90
       13
176
     1
 40
0.0
176
     1
 90
        0
176
     1
290
     0
176
     1
290
     1
176
     1
290
     1
176
     1
290
     0
176
     1
290
     0
176
     1
290
     0
176
     1
290
     0
176
     1
290
     0
176
     1
290
     0
176
     1
 90
       50
176
     1
 40
0.0
176
     1
 40
1.0
176
     1
 90
        0
176
     1
 62
    18
420
        0
176
     1
 90
       50
176
     1
 90
        3
176
     1
 62
     5
420
      255
176
     1
290
     0
176
     1
 90
       50
176
     1
 90
       50
176
     1
 90
       50
176
     1
290
     0
176
     1
 90
       50
176
     1
 62
   256
176
     0
 40
1.0
176
     0
 90
        2
176
     1
  1
strokes_ogs.tif
176
     1
290
     0
176
     1
 40
1.0
176
     1
 40
1.0
176
     1
1001
ACAD
1000
AcDbSavedByObjectVersion
1070
     0
  0
VISUALSTYLE
  5
2D
102
{ACAD_REACTORS
330
29
102
}
330
29
100
AcDbVisualStyle
  2
GouraudWithEdges
 70
     3
177
     3
291
     1
 70
    58
 90
        2
176
     1
 90
        2
176
     1
 90
        1
176
     1
 90
        2
176
     1
 40
0.6
176
     1
 40
30.0
176
     1
 62
     7
420
 16777215
176
     1
 90
        1
176
     1
 90
        0
176
     1
 62
     7
176
     1
 62
   257
176
     1
 90
        1
176
     1
 90
        1
176
     1
 40
1.0
176
     1
 90
        0
176
     1
 62
   257
176
     1
 40
1.0
176
     1
 90
        1
176
     1
 90
        6
176
     1
 90
        2
176
     1
 62
     7
176
     1
 90
        5
176
     1
 90
        0
176
     1
 90
        0
176
     1
290
     0
176
     1
 90
       13
176
     1
 40
0.0
176
     1
 90
        0
176
     1
290
     0
176
     1
290
     1
176
     1
290
     1
176
     1
290
     0
176
     1
290
     0
176
     1
290
     0
176
     1
290
     0
176
     1
290
     0
176
     1
290
     0
176
     1
 90
       50
176
     1
 40
0.0
176
     1
 40
1.0
176
     1
 90
        0
176
     1
 62
    18
420
        0
176
     1
 90
       50
176
     1
 90
        3
176
     1
 62
     5
420
      255
176
     1
290
     0
176
     1
 90
       50
176
     1
 90
       50
176
     1
 90
       50
176
     1
290
     0
176
     1
 90
       50
176
     1
 62
   256
176
     0
 40
1.0
176
     0
 90
        2
176
     1
  1
strokes_ogs.tif
176
     1
290
     0
176
     1
 40
1.0
176
     1
 40
1.0
176
     1
1001
ACAD
1000
AcDbSavedByObjectVersion
1070
     0
  0
VISUALSTYLE
  5
31
102
{ACAD_REACTORS
330
29
102
}
330
29
100
AcDbVisualStyle
  2
Hidden
 70
     6
177
     3
291
     0
 70
    58
 90
        1
176
     1
 90
        2
176
     1
 90
        2
176
     1
 90
        0
176
     1
 40
0.6
176
     1
 40
30.0
176
     1
 62
     7
420
 16777215
176
     1
 90
        2
176
     1
 90
        2
176
     1
 62
     7
176
     1
 62
   257
176
     1
 90
        2
176
     1
 90
        1
176
     1
 40
40.0
176
     1
 90
        0
176
     1
 62
   257
176
     1
 40
1.0
176
     1
 90
        1
176
     1
 90
        6
176
     1
 90
        2
176
     1
 62
     7
176
     1
 90
        3
176
     1
 90
        0
176
     1
 90
        0
176
     1
290
     0
176
     1
 90
        1
176
     1
 40
0.0
176
     1
 90
        0
176
     1
290
     0
176
     1
290
     1
176
     1
290
     1
176
     1
290
     0
176
     1
290
     0
176
     1
290
     0
176
     1
290
     0
176
     1
290
     0
176
     1
290
     0
176
     1
 90
       50
176
     1
 40
0.0
176
     1
 40
1.0
176
     1
 90
        0
176
     1
 62
    18
420
        0
176
     1
 90
       50
176
     1
 90
        3
176
     1
 62
     5
420
      255
176
     1
290
     0
176
     1
 90
       50
176
     1
 90
       50
176
     1
 90
       50
176
     1
290
     0
176
     1
 90
       50
176
     1
 62
   256
176
     0
 40
1.0
176
     0
 90
        2
176
     1
  1
strokes_ogs.tif
176
     1
290
     0
176
     1
 40
1.0
176
     1
 40
1.0
176
     1
1001
ACAD
1000
AcDbSavedByObjectVersion
1070
     0
  0
VISUALSTYLE
  5
3F
102
{ACAD_REACTORS
330
29
102
}
330
29
100
AcDbVisualStyle
  2
JitterOff
 70
    20
177
     3
291
     1
 70
    58
 90
        2
176
     0
 90
        2
176
     0
 90
        0
176
     0
 90
        0
176
     0
 40
0.6
176
     0
 40
30.0
176
     0
 62
     7
420
 16777215
176
     0
 90
        1
176
     0
 90
        4
176
     0
 62
     7
176
     0
 62
   257
176
     0
 90
        1
176
     0
 90
        1
176
     0
 40
1.0
176
     0
 90
       10
176
     2
 62
     7
176
     0
 40
1.0
176
     0
 90
        1
176
     0
 90
        6
176
     0
 90
        2
176
     0
 62
     7
176
     0
 90
        5
176
     0
 90
        0
176
     0
 90
        0
176
     0
290
     0
176
     0
 90
        1
176
     0
 40
0.0
176
     0
 90
        0
176
     0
290
     0
176
     0
290
     1
176
     0
290
     1
176
     0
290
     0
176
     0
290
     0
176
     0
290
     0
176
     0
290
     0
176
     0
290
     0
176
     0
290
     0
176
     0
 90
       50
176
     0
 40
0.0
176
     0
 40
1.0
176
     0
 90
        0
176
     0
 62
    18
420
        0
176
     0
 90
       50
176
     0
 90
        3
176
     0
 62
     5
420
      255
176
     0
290
     0
176
     0
 90
       50
176
     0
 90
       50
176
     0
 90
       50
176
     0
290
     0
176
     0
 90
       50
176
     0
 62
   256
176
     0
 40
1.0
176
     0
 90
        2
176
     0
  1
strokes_ogs.tif
176
     0
290
     0
176
     0
 40
1.0
176
     0
 40
1.0
176
     0
1001
ACAD
1000
AcDbSavedByObjectVersion
1070
     0
  0
VISUALSTYLE
  5
37
102
{ACAD_REACTORS
330
29
102
}
330
29
100
AcDbVisualStyle
  2
Linepattern
 70
    14
177
     3
291
     1
 70
    58
 90
        2
176
     1
 90
        2
176
     1
 90
        0
176
     1
 90
        0
176
     1
 40
0.6
176
     1
 40
30.0
176
     1
 62
     7
420
 16777215
176
     1
 90
        1
176
     1
 90
        4
176
     1
 62
     7
176
     1
 62
   257
176
     1
 90
        7
176
     1
 90
        7
176
     1
 40
1.0
176
     1
 90
        8
176
     1
 62
     7
176
     1
 40
1.0
176
     1
 90
        1
176
     1
 90
        6
176
     1
 90
        2
176
     1
 62
     7
176
     1
 90
        5
176
     1
 90
        0
176
     1
 90
        0
176
     1
290
     0
176
     1
 90
        1
176
     1
 40
0.0
176
     1
 90
        0
176
     1
290
     0
176
     1
290
     1
176
     1
290
     1
176
     1
290
     0
176
     1
290
     0
176
     1
290
     0
176
     1
290
     0
176
     1
290
     0
176
     1
290
     0
176
     1
 90
       50
176
     1
 40
0.0
176
     1
 40
1.0
176
     1
 90
        0
176
     1
 62
    18
420
        0
176
     1
 90
       50
176
     1
 90
        3
176
     1
 62
     5
420
      255
176
     1
290
     0
176
     1
 90
       50
176
     1
 90
       50
176
     1
 90
       50
176
     1
290
     0
176
     1
 90
       50
176
     1
 62
   256
176
     0
 40
1.0
176
     0
 90
        2
176
     1
  1
strokes_ogs.tif
176
     1
290
     0
176
     1
 40
1.0
176
     1
 40
1.0
176
     1
1001
ACAD
1000
AcDbSavedByObjectVersion
1070
     0
  0
VISUALSTYLE
  5
40
102
{ACAD_REACTORS
330
29
102
}
330
29
100
AcDbVisualStyle
  2
OverhangOff
 70
    21
177
     3
291
     1
 70
    58
 90
        2
176
     0
 90
        2
176
     0
 90
        0
176
     0
 90
        0
176
     0
 40
0.6
176
     0
 40
30.0
176
     0
 62
     7
420
 16777215
176
     0
 90
        1
176
     0
 90
        4
176
     0
 62
     7
176
     0
 62
   257
176
     0
 90
        1
176
     0
 90
        1
176
     0
 40
1.0
176
     0
 90
        9
176
     2
 62
     7
176
     0
 40
1.0
176
     0
 90
        1
176
     0
 90
        6
176
     0
 90
        2
176
     0
 62
     7
176
     0
 90
        5
176
     0
 90
        0
176
     0
 90
        0
176
     0
290
     0
176
     0
 90
        1
176
     0
 40
0.0
176
     0
 90
        0
176
     0
290
     0
176
     0
290
     1
176
     0
290
     1
176
     0
290
     0
176
     0
290
     0
176
     0
290
     0
176
     0
290
     0
176
     0
290
     0
176
     0
290
     0
176
     0
 90
       50
176
     0
 40
0.0
176
     0
 40
1.0
176
     0
 90
        0
176
     0
 62
    18
420
        0
176
     0
 90
       50
176
     0
 90
        3
176
     0
 62
     5
420
      255
176
     0
290
     0
176
     0
 90
       50
176
     0
 90
       50
176
     0
 90
       50
176
     0
290
     0
176
     0
 90
       50
176
     0
 62
   256
176
     0
 40
1.0
176
     0
 90
        2
176
     0
  1
strokes_ogs.tif
176
     0
290
     0
176
     0
 40
1.0
176
     0
 40
1.0
176
     0
1001
ACAD
1000
AcDbSavedByObjectVersion
1070
     0
  0
VISUALSTYLE
  5
33
102
{ACAD_REACTORS
330
29
102
}
330
29
100
AcDbVisualStyle
  2
Realistic
 70
     8
177
     3
291
     0
 70
    58
 90
        2
176
     1
 90
        3
176
     1
 90
        0
176
     1
 90
        2
176
     1
 40
0.6
176
     1
 40
30.0
176
     1
 62
     7
420
 16777215
176
     1
 90
        0
176
     1
 90
        0
176
     1
 62
     7
176
     1
 62
   257
176
     1
 90
        1
176
     1
 90
        1
176
     1
 40
1.0
176
     1
 90
        8
176
     1
 62
   257
176
     1
 40
1.0
176
     1
 90
        1
176
     1
 90
        6
176
     1
 90
        2
176
     1
 62
     7
176
     1
 90
        3
176
     1
 90
        0
176
     1
 90
        0
176
     1
290
     0
176
     1
 90
       13
176
     1
 40
0.0
176
     1
 90
        0
176
     1
290
     0
176
     1
290
     1
176
     1
290
     1
176
     1
290
     0
176
     1
290
     0
176
     1
290
     0
176
     1
290
     0
176
     1
290
     0
176
     1
290
     0
176
     1
 90
       50
176
     1
 40
0.0
176
     1
 40
1.0
176
     1
 90
        0
176
     1
 62
    18
420
        0
176
     1
 90
       50
176
     1
 90
        3
176
     1
 62
     5
420
      255
176
     1
290
     0
176
     1
 90
       50
176
     1
 90
       50
176
     1
 90
       50
176
     1
290
     0
176
     1
 90
       50
176
     1
 62
   256
176
     0
 40
1.0
176
     0
 90
        2
176
     1
  1
strokes_ogs.tif
176
     1
290
     0
176
     1
 40
1.0
176
     1
 40
1.0
176
     1
1001
ACAD
1000
AcDbSavedByObjectVersion
1070
     0
  0
VISUALSTYLE
  5
3E
102
{ACAD_REACTORS
330
29
102
}
330
29
100
AcDbVisualStyle
  2
Shaded
 70
    27
177
     3
291
     0
 70
    58
 90
        2
176
     1
 90
        2
176
     1
 90
        1
176
     1
 90
        2
176
     1
 40
0.6
176
     1
 40
30.0
176
     1
 62
     7
420
 16777215
176
     1
 90
        0
176
     1
 90
        4
176
     1
 62
     7
176
     1
 62
   257
176
     1
 90
        1
176
     1
 90
        1
176
     1
 40
1.0
176
     1
 90
        8
176
     1
 62
   257
176
     1
 40
1.0
176
     1
 90
        1
176
     1
 90
        6
176
     1
 90
        2
176
     1
 62
     8
420
  7895160
176
     1
 90
        3
176
     1
 90
        0
176
     1
 90
        0
176
     1
290
     0
176
     1
 90
        5
176
     1
 40
0.0
176
     1
 90
        0
176
     1
290
     0
176
     1
290
     1
176
     1
290
     1
176
     1
290
     0
176
     1
290
     0
176
     1
290
     0
176
     1
290
     0
176
     1
290
     0
176
     1
290
     0
176
     1
 90
       50
176
     1
 40
0.0
176
     1
 40
1.0
176
     1
 90
        0
176
     1
 62
    18
420
        0
176
     1
 90
       50
176
     1
 90
        3
176
     1
 62
     5
420
      255
176
     1
290
     0
176
     1
 90
       50
176
     1
 90
       50
176
     1
 90
       50
176
     1
290
     0
176
     1
 90
       50
176
     1
 62
   256
176
     0
 40
1.0
176
     0
 90
        2
176
     1
  1
strokes_ogs.tif
176
     1
290
     0
176
     1
 40
1.0
176
     1
 40
1.0
176
     1
1001
ACAD
1000
AcDbSavedByObjectVersion
1070
     0
  0
VISUALSTYLE
  5
3D
102
{ACAD_REACTORS
330
29
102
}
330
29
100
AcDbVisualStyle
  2
Shaded with edges
 70
    26
177
     3
291
     0
 70
    58
 90
        2
176
     1
 90
        2
176
     1
 90
        1
176
     1
 90
        2
176
     1
 40
0.6
176
     1
 40
30.0
176
     1
 62
     7
420
 16777215
176
     1
 90
        1
176
     1
 90
        2
176
     1
 62
     7
176
     1
 62
   257
176
     1
 90
        2
176
     1
 90
        1
176
     1
 40
1.0
176
     1
 90
        8
176
     1
 62
   257
176
     1
 40
1.0
176
     1
 90
        1
176
     1
 90
        6
176
     1
 90
        2
176
     1
 62
     7
176
     1
 90
        3
176
     1
 90
        0
176
     1
 90
        0
176
     1
290
     0
176
     1
 90
        5
176
     1
 40
0.0
176
     1
 90
        0
176
     1
290
     0
176
     1
290
     1
176
     1
290
     1
176
     1
290
     0
176
     1
290
     0
176
     1
290
     0
176
     1
290
     0
176
     1
290
     0
176
     1
290
     0
176
     1
 90
       50
176
     1
 40
0.0
176
     1
 40
1.0
176
     1
 90
        0
176
     1
 62
    18
420
        0
176
     1
 90
       50
176
     1
 90
        3
176
     1
 62
     5
420
      255
176
     1
290
     0
176
     1
 90
       50
176
     1
 90
       50
176
     1
 90
       50
176
     1
290
     0
176
     1
 90
       50
176
     1
 62
   256
176
     0
 40
1.0
176
     0
 90
        2
176
     1
  1
strokes_ogs.tif
176
     1
290
     0
176
     1
 40
1.0
176
     1
 40
1.0
176
     1
1001
ACAD
1000
AcDbSavedByObjectVersion
1070
     0
  0
VISUALSTYLE
  5
3A
102
{ACAD_REACTORS
330
29
102
}
330
29
100
AcDbVisualStyle
  2
Shades of Gray
 70
    23
177
     3
291
     0
 70
    58
 90
        2
176
     1
 90
        2
176
     1
 90
        3
176
     1
 90
        0
176
     1
 40
0.6
176
     1
 40
30.0
176
     1
 62
     7
420
 16777215
176
     1
 90
        2
176
     1
 90
        2
176
     1
 62
     7
176
     1
 62
     7
176
     1
 90
        1
176
     1
 90
        1
176
     1
 40
40.0
176
     1
 90
        8
176
     1
 62
     7
176
     1
 40
1.0
176
     1
 90
        1
176
     1
 90
        6
176
     1
 90
        2
176
     1
 62
     7
176
     1
 90
        3
176
     1
 90
        0
176
     1
 90
        0
176
     1
290
     0
176
     1
 90
        1
176
     1
 40
0.0
176
     1
 90
        0
176
     1
290
     0
176
     1
290
     1
176
     1
290
     1
176
     1
290
     0
176
     1
290
     0
176
     1
290
     0
176
     1
290
     0
176
     1
290
     0
176
     1
290
     0
176
     1
 90
       50
176
     1
 40
0.0
176
     1
 40
1.0
176
     1
 90
        0
176
     1
 62
    18
420
        0
176
     1
 90
       50
176
     1
 90
        3
176
     1
 62
     5
420
      255
176
     1
290
     0
176
     1
 90
       50
176
     1
 90
       50
176
     1
 90
       50
176
     1
290
     0
176
     1
 90
       50
176
     1
 62
   256
176
     0
 40
1.0
176
     0
 90
        2
176
     1
  1
strokes_ogs.tif
176
     1
290
     0
176
     1
 40
1.0
176
     1
 40
1.0
176
     1
1001
ACAD
1000
AcDbSavedByObjectVersion
1070
     0
  0
VISUALSTYLE
  5
3B
102
{ACAD_REACTORS
330
29
102
}
330
29
100
AcDbVisualStyle
  2
Sketchy
 70
    24
177
     3
291
     0
 70
    58
 90
        1
176
     1
 90
        2
176
     1
 90
        2
176
     1
 90
        0
176
     1
 40
0.6
176
     1
 40
30.0
176
     1
 62
     7
420
 16777215
176
     1
 90
        2
176
     1
 90
        2
176
     1
 62
     7
176
     1
 62
     7
176
     1
 90
        1
176
     1
 90
        1
176
     1
 40
40.0
176
     1
 90
       11
176
     1
 62
     7
176
     1
 40
1.0
176
     1
 90
        1
176
     1
 90
        6
176
     1
 90
        2
176
     1
 62
     7
176
     1
 90
        6
176
     1
 90
        0
176
     1
 90
        0
176
     1
290
     0
176
     1
 90
        1
176
     1
 40
0.0
176
     1
 90
        0
176
     1
290
     0
176
     1
290
     1
176
     1
290
     1
176
     1
290
     0
176
     1
290
     0
176
     1
290
     0
176
     1
290
     0
176
     1
290
     0
176
     1
290
     0
176
     1
 90
       50
176
     1
 40
0.0
176
     1
 40
1.0
176
     1
 90
        0
176
     1
 62
    18
420
        0
176
     1
 90
       50
176
     1
 90
        3
176
     1
 62
     5
420
      255
176
     1
290
     0
176
     1
 90
       50
176
     1
 90
       50
176
     1
 90
       50
176
     1
290
     0
176
     1
 90
       50
176
     1
 62
   256
176
     0
 40
1.0
176
     0
 90
        2
176
     1
  1
strokes_ogs.tif
176
     1
290
     0
176
     1
 40
1.0
176
     1
 40
1.0
176
     1
1001
ACAD
1000
AcDbSavedByObjectVersion
1070
     0
  0
VISUALSTYLE
  5
36
102
{ACAD_REACTORS
330
29
102
}
330
29
100
AcDbVisualStyle
  2
Thicken
 70
    13
177
     3
291
     1
 70
    58
 90
        2
176
     1
 90
        2
176
     1
 90
        0
176
     1
 90
        0
176
     1
 40
0.6
176
     1
 40
30.0
176
     1
 62
     7
420
 16777215
176
     1
 90
        1
176
     1
 90
        4
176
     1
 62
     7
176
     1
 62
   257
176
     1
 90
        1
176
     1
 90
        1
176
     1
 40
1.0
176
     1
 90
       12
176
     1
 62
     7
176
     1
 40
1.0
176
     1
 90
        1
176
     1
 90
        6
176
     1
 90
        2
176
     1
 62
     7
176
     1
 90
        5
176
     1
 90
        0
176
     1
 90
        0
176
     1
290
     0
176
     1
 90
        1
176
     1
 40
0.0
176
     1
 90
        0
176
     1
290
     0
176
     1
290
     1
176
     1
290
     1
176
     1
290
     0
176
     1
290
     0
176
     1
290
     0
176
     1
290
     0
176
     1
290
     0
176
     1
290
     0
176
     1
 90
       50
176
     1
 40
0.0
176
     1
 40
1.0
176
     1
 90
        0
176
     1
 62
    18
420
        0
176
     1
 90
       50
176
     1
 90
        3
176
     1
 62
     5
420
      255
176
     1
290
     0
176
     1
 90
       50
176
     1
 90
       50
176
     1
 90
       50
176
     1
290
     0
176
     1
 90
       50
176
     1
 62
   256
176
     0
 40
1.0
176
     0
 90
        2
176
     1
  1
strokes_ogs.tif
176
     1
290
     0
176
     1
 40
1.0
176
     1
 40
1.0
176
     1
1001
ACAD
1000
AcDbSavedByObjectVersion
1070
     0
  0
VISUALSTYLE
  5
30
102
{ACAD_REACTORS
330
29
102
}
330
29
100
AcDbVisualStyle
  2
Wireframe
 70
     5
177
     3
291
     0
 70
    58
 90
        0
176
     1
 90
        2
176
     1
 90
        0
176
     1
 90
        0
176
     1
 40
0.6
176
     1
 40
30.0
176
     1
 62
     7
420
 16777215
176
     1
 90
        1
176
     1
 90
        4
176
     1
 62
     7
176
     1
 62
   257
176
     1
 90
        1
176
     1
 90
        1
176
     1
 40
1.0
176
     1
 90
        0
176
     1
 62
   257
176
     1
 40
1.0
176
     1
 90
        1
176
     1
 90
        6
176
     1
 90
        2
176
     1
 62
     7
176
     1
 90
        3
176
     1
 90
        0
176
     1
 90
        0
176
     1
290
     0
176
     1
 90
        1
176
     1
 40
0.0
176
     1
 90
        0
176
     1
290
     0
176
     1
290
     1
176
     1
290
     1
176
     1
290
     0
176
     1
290
     0
176
     1
290
     0
176
     1
290
     0
176
     1
290
     0
176
     1
290
     0
176
     1
 90
       50
176
     1
 40
0.0
176
     1
 40
1.0
176
     1
 90
        0
176
     1
 62
    18
420
        0
176
     1
 90
       50
176
     1
 90
        3
176
     1
 62
     5
420
      255
176
     1
290
     0
176
     1
 90
       50
176
     1
 90
       50
176
     1
 90
       50
176
     1
290
     0
176
     1
 90
       50
176
     1
 62
   256
176
     0
 40
1.0
176
     0
 90
        2
176
     1
  1
strokes_ogs.tif
176
     1
290
     0
176
     1
 40
1.0
176
     1
 40
1.0
176
     1
1001
ACAD
1000
AcDbSavedByObjectVersion
1070
     0
  0
VISUALSTYLE
  5
3C
102
{ACAD_REACTORS
330
29
102
}
330
29
100
AcDbVisualStyle
  2
X-Ray
 70
    25
177
     3
291
     0
 70
    58
 90
        2
176
     1
 90
        2
176
     1
 90
        1
176
     1
 90
        1
176
     1
 40
0.5
176
     1
 40
30.0
176
     1
 62
     7
420
 16777215
176
     1
 90
        1
176
     1
 90
        0
176
     1
 62
     7
176
     1
 62
   257
176
     1
 90
        1
176
     1
 90
        1
176
     1
 40
1.0
176
     1
 90
        8
176
     1
 62
     7
176
     1
 40
1.0
176
     1
 90
        1
176
     1
 90
        6
176
     1
 90
        2
176
     1
 62
     7
176
     1
 90
        3
176
     1
 90
        0
176
     1
 90
        0
176
     1
290
     0
176
     1
 90
       13
176
     1
 40
0.0
176
     1
 90
        0
176
     1
290
     0
176
     1
290
     1
176
     1
290
     1
176
     1
290
     0
176
     1
290
     0
176
     1
290
     0
176
     1
290
     0
176
     1
290
     0
176
     1
290
     0
176
     1
 90
       50
176
     1
 40
0.0
176
     1
 40
1.0
176
     1
 90
        0
176
     1
 62
    18
420
        0
176
     1
 90
       50
176
     1
 90
        3
176
     1
 62
     5
420
      255
176
     1
290
     0
176
     1
 90
       50
176
     1
 90
       50
176
     1
 90
       50
176
     1
290
     0
176
     1
 90
       50
176
     1
 62
   256
176
     0
 40
1.0
176
     0
 90
        2
176
     1
  1
strokes_ogs.tif
176
     1
290
     0
176
     1
 40
1.0
176
     1
 40
1.0
176
     1
1001
ACAD
1000
AcDbSavedByObjectVersion
1070
     0
  0
DICTIONARYVAR
  5
185
102
{ACAD_REACTORS
330
180
102
}
330
180
100
DictionaryVariables
280
     0
  1
1:1
  0
DICTIONARYVAR
  5
182
102
{ACAD_REACTORS
330
180
102
}
330
180
100
DictionaryVariables
280
     0
  1
STANDARD
  0
DICTIONARYVAR
  5
181
102
{ACAD_REACTORS
330
180
102
}
330
180
100
DictionaryVariables
280
     0
  1
STANDARD
  0
DICTIONARYVAR
  5
183
102
{ACAD_REACTORS
330
180
102
}
330
180
100
DictionaryVariables
280
     0
  1
Imperial24
  0
DICTIONARYVAR
  5
184
102
{ACAD_REACTORS
330
180
102
}
330
180
100
DictionaryVariables
280
     0
  1
Imperial24
  0
DICTIONARY
  5
18B
330
6B
100
AcDbDictionary
280
     1
281
     1
  3
ACAD_XREC_ROUNDTRIP
360
18C
  0
DICTIONARY
  5
1A
330
19
100
AcDbDictionary
280
     1
281
     1
  3
BUMPTILE
360
1C
  3
DIFFUSETILE
360
1B
  3
OPACITYTILE
360
1F
  3
REFLECTIONTILE
360
1E
  3
REFRACTIONTILE
360
20
  3
SPECULARTILE
360
1D
  0
DICTIONARY
  5
12
330
11
100
AcDbDictionary
280
     1
281
     1
  3
BUMPTILE
360
14
  3
DIFFUSETILE
360
13
  3
OPACITYTILE
360
17
  3
REFLECTIONTILE
360
16
  3
REFRACTIONTILE
360
18
  3
SPECULARTILE
360
15
  0
DICTIONARY
  5
22
330
21
100
AcDbDictionary
280
     1
281
     1
  3
BUMPTILE
360
24
  3
DIFFUSETILE
360
23
  3
OPACITYTILE
360
27
  3
REFLECTIONTILE
360
26
  3
REFRACTIONTILE
360
28
  3
SPECULARTILE
360
25
  0
DICTIONARY
  5
189
330
69
100
AcDbDictionary
280
     1
281
     1
  3
ACAD_XREC_ROUNDTRIP
360
18A
  0
DICTIONARY
  5
186
330
65
100
AcDbDictionary
280
     1
281
     1
  3
ACAD_ROUNDTRIP_2008_TABLESTYLE_CELLSTYLEMAP
360
187
  0
XRECORD
  5
18C
102
{ACAD_REACTORS
330
18B
102
}
330
18B
100
AcDbXrecord
280
     1
102
DISPLAYNAME
  1
Imperial24
102
FLAGS
 90
        0
  0
XRECORD
  5
1C
102
{ACAD_REACTORS
330
1A
102
}
330
1A
100
AcDbXrecord
280
     1
270
     1
271
     1
  0
XRECORD
  5
1B
102
{ACAD_REACTORS
330
1A
102
}
330
1A
100
AcDbXrecord
280
     1
270
     1
271
     1
  0
XRECORD
  5
1F
102
{ACAD_REACTORS
330
1A
102
}
330
1A
100
AcDbXrecord
280
     1
270
     1
271
     1
  0
XRECORD
  5
1E
102
{ACAD_REACTORS
330
1A
102
}
330
1A
100
AcDbXrecord
280
     1
270
     1
271
     1
  0
XRECORD
  5
20
102
{ACAD_REACTORS
330
1A
102
}
330
1A
100
AcDbXrecord
280
     1
270
     1
271
     1
  0
XRECORD
  5
1D
102
{ACAD_REACTORS
330
1A
102
}
330
1A
100
AcDbXrecord
280
     1
270
     1
271
     1
  0
XRECORD
  5
14
102
{ACAD_REACTORS
330
12
102
}
330
12
100
AcDbXrecord
280
     1
270
     1
271
     1
  0
XRECORD
  5
13
102
{ACAD_REACTORS
330
12
102
}
330
12
100
AcDbXrecord
280
     1
270
     1
271
     1
  0
XRECORD
  5
17
102
{ACAD_REACTORS
330
12
102
}
330
12
100
AcDbXrecord
280
     1
270
     1
271
     1
  0
XRECORD
  5
16
102
{ACAD_REACTORS
330
12
102
}
330
12
100
AcDbXrecord
280
     1
270
     1
271
     1
  0
XRECORD
  5
18
102
{ACAD_REACTORS
330
12
102
}
330
12
100
AcDbXrecord
280
     1
270
     1
271
     1
  0
XRECORD
  5
15
102
{ACAD_REACTORS
330
12
102
}
330
12
100
AcDbXrecord
280
     1
270
     1
271
     1
  0
XRECORD
  5
24
102
{ACAD_REACTORS
330
22
102
}
330
22
100
AcDbXrecord
280
     1
270
     1
271
     1
  0
XRECORD
  5
23
102
{ACAD_REACTORS
330
22
102
}
330
22
100
AcDbXrecord
280
     1
270
     1
271
     1
  0
XRECORD
  5
27
102
{ACAD_REACTORS
330
22
102
}
330
22
100
AcDbXrecord
280
     1
270
     1
271
     1
  0
XRECORD
  5
26
102
{ACAD_REACTORS
330
22
102
}
330
22
100
AcDbXrecord
280
     1
270
     1
271
     1
  0
XRECORD
  5
28
102
{ACAD_REACTORS
330
22
102
}
330
22
100
AcDbXrecord
280
     1
270
     1
271
     1
  0
XRECORD
  5
25
102
{ACAD_REACTORS
330
22
102
}
330
22
100
AcDbXrecord
280
     1
270
     1
271
     1
  0
XRECORD
  5
18A
102
{ACAD_REACTORS
330
189
102
}
330
189
100
AcDbXrecord
280
     1
102
DISPLAYNAME
  1
Imperial24
102
FLAGS
 90
        0
  0
CELLSTYLEMAP
  5
187
102
{ACAD_REACTORS
330
186
102
}
330
186
100
AcDbCellStyleMap
 90
        3
300
CELLSTYLE
  1
TABLEFORMAT_BEGIN
 90
        5
170
     1
 91
        0
 92
    32768
 62
   257
 93
        1
300
CONTENTFORMAT
  1
CONTENTFORMAT_BEGIN
 90
        0
 91
        0
 92
      512
 93
        0
300

 40
0.0
140
1.0
 94
        5
 62
     0
340
55
144
0.25
309
CONTENTFORMAT_END
171
     0
 94
        0
309
TABLEFORMAT_END
  1
CELLSTYLE_BEGIN
 90
        1
 91
        1
300
_TITLE
309
CELLSTYLE_END
300
CELLSTYLE
  1
TABLEFORMAT_BEGIN
 90
        5
170
     1
 91
        0
 92
        0
 62
   257
 93
        1
300
CONTENTFORMAT
  1
CONTENTFORMAT_BEGIN
 90
        0
 91
        0
 92
      512
 93
        0
300

 40
0.0
140
1.0
 94
        5
 62
     0
340
55
144
0.18
309
CONTENTFORMAT_END
171
     0
 94
        0
309
TABLEFORMAT_END
  1
CELLSTYLE_BEGIN
 90
        2
 91
        1
300
_HEADER
309
CELLSTYLE_END
300
CELLSTYLE
  1
TABLEFORMAT_BEGIN
 90
        5
170
     1
 91
        0
 92
        0
 62
   257
 93
        1
300
CONTENTFORMAT
  1
CONTENTFORMAT_BEGIN
 90
        0
 91
        0
 92
      512
 93
        0
300

 40
0.0
140
1.0
 94
        2
 62
     0
340
55
144
0.18
309
CONTENTFORMAT_END
171
     0
 94
        0
309
TABLEFORMAT_END
  1
CELLSTYLE_BEGIN
 90
        3
 91
        2
300
_DATA
309
CELLSTYLE_END
  0
ENDSEC
  0
EOF
